<svg width="61" height="60" viewBox="0 0 61 60" fill="none" xmlns="http://www.w3.org/2000/svg">
<path d="M20.76 35.288C22.7583 38.3219 21.5028 40.8746 21.461 40.9583V41.0002C20.488 43.103 20.1114 46.1578 21.4296 48.2816C23.5115 51.6294 29.9246 51.8909 30.8348 51.8909C34.2663 52.686 41.7046 56.3791 42.6253 56.8498C44.1736 58.0948 46.8205 58.5656 48.6095 58.8481H48.7036C49.3941 58.9422 55.8909 59.4235 58.1402 57.5194C58.6424 57.1114 58.9667 56.5151 58.9771 55.8246C58.9876 53.0313 56.6651 52.0583 54.8342 51.2737C54.4681 51.1377 54.1438 50.9494 53.7776 50.8134C51.4028 49.7044 49.1639 48.4071 47.0193 46.932C45.0629 45.4988 38.2313 37.8721 36.683 35.8006C35.5949 34.3674 34.5906 32.9027 33.6804 31.3544L28.167 0.261773L1.53119 0.13623L20.7182 35.1938C20.7182 35.2462 20.76 35.2462 20.76 35.288ZM23.1453 25.7782C22.8733 25.14 22.6118 24.4495 22.3293 23.7172C22.3293 23.7172 22.2875 23.7172 22.2875 23.6754C22.1515 23.5394 22.0155 23.4034 21.8272 23.3092C20.7705 22.3886 19.6825 21.4261 17.8098 21.1854C17.3076 21.1436 16.9415 20.6414 17.0356 20.1288C17.1298 19.6162 17.5796 19.2605 18.0923 19.3546C19.0966 19.4906 20.1009 19.8254 21.0216 20.3694C18.856 15.0025 16.3661 8.63124 13.8343 1.98798C13.646 1.52765 13.8762 0.983639 14.3888 0.795326C14.8491 0.607013 15.3931 0.837173 15.5814 1.3498C16.3451 3.35848 17.067 5.29392 17.8412 7.21889C18.7514 9.37403 21.0111 12.9938 25.9596 13.0252C26.4617 13.0252 26.8802 13.4332 26.8802 13.9459C26.8802 14.4585 26.4722 14.8665 25.9596 14.8665C23.8986 14.8979 21.8376 14.3016 20.1533 13.0984C21.9213 17.597 23.5847 21.6772 24.9448 25.1086C26.4304 28.8749 27.5707 31.6159 28.0206 32.9027C28.8366 34.6917 30.2908 36.9828 32.9376 38.0918C33.3979 38.2801 33.6281 38.8241 33.4293 39.2844C33.2306 39.7447 32.697 39.9749 32.2367 39.7761C31.0963 39.3053 30.0502 38.6253 29.1818 37.757V38.5312C29.14 39.2635 28.983 39.954 28.8052 40.634C28.4286 42.0568 28.2507 42.967 28.8784 43.9295C29.7363 45.2058 31.5253 45.2686 33.2619 45.3209H33.806C35.9088 45.4255 37.9698 46.0323 39.7483 47.1413C40.2086 47.4133 40.3446 47.9677 40.0621 48.3758C39.7901 48.7838 39.2356 48.9721 38.8276 48.6896C38.2836 48.3653 37.7291 48.0828 37.1328 47.8527C37.4048 48.449 37.6245 49.0872 37.7605 49.7253L37.8024 49.9137C37.9384 50.4158 37.6141 50.918 37.1537 51.0121C36.6516 51.1481 36.1494 50.8238 36.0552 50.3635L36.0134 50.1752C35.6995 48.9825 35.3857 47.7062 33.785 47.0994H33.7432H33.1992C31.2323 47.0471 28.7633 46.9843 27.351 44.9129C26.2211 43.2495 26.6396 41.6174 27.0058 40.1528C27.1941 39.5564 27.2882 38.9601 27.3405 38.3638C27.4452 36.7108 26.943 35.1625 26.3571 33.5618C25.8131 32.3796 24.6832 29.6386 23.1453 25.7782Z" fill="#FD350A"/>
</svg>
