<svg width="48" height="53" viewBox="0 0 48 53" fill="none" xmlns="http://www.w3.org/2000/svg">
<g clip-path="url(#clip0_1_432)">
<path fill-rule="evenodd" clip-rule="evenodd" d="M29.1513 35.1973L29.2111 35.1207C29.5496 34.4436 29.1185 33.5464 28.3961 33.3519C27.7449 33.2242 27.1589 33.013 26.591 32.6926C26.1414 32.4646 25.719 32.2019 25.3293 31.8973C24.3548 31.136 23.6071 30.1707 23.0485 29.1066C22.8549 28.7088 22.5069 28.4369 22.0741 28.3453C20.8808 28.108 19.7889 27.5688 18.8145 26.8075C18.4247 26.5029 18.0676 26.1567 17.7376 25.7756C17.2894 25.302 16.9753 24.7428 16.6612 24.1836C16.3304 23.488 15.3903 23.314 14.7804 23.779C14.7478 23.8207 14.7206 23.8556 14.6788 23.8229C12.8861 25.3141 12.4023 27.6263 13.0504 29.5225C13.6692 31.3846 13.4595 33.4177 12.2414 34.9768L6.27058 42.6191L12.9733 47.8558L18.8788 40.297C20.0969 38.7379 22.0188 38.0426 23.9753 38.1925C26.0186 38.3317 28.0761 37.3051 29.1513 35.1973Z" fill="#FD350A"/>
<path fill-rule="evenodd" clip-rule="evenodd" d="M19.6402 24.0003C20.743 25.243 22.2244 25.8288 23.6987 25.7925C24.3332 25.7838 24.8413 26.1808 24.9864 26.7985C25.3078 28.2378 26.2346 29.5335 27.7071 30.3029C29.5527 31.2404 31.8067 30.9951 33.3798 29.7133C35.1725 28.2221 35.6563 25.91 35.0082 24.0137C34.3894 22.1516 34.5991 20.1185 35.8172 18.5595L41.8152 10.8824L35.1056 5.64022L29.1348 13.2825C27.9167 14.8416 25.9948 15.5369 24.0383 15.387C21.9726 15.2191 19.9151 16.2457 18.9019 18.3459C17.9698 20.1845 18.3259 22.469 19.6402 24.0003Z" fill="#FD350A"/>
</g>
<defs>
<clipPath id="clip0_1_432">
<rect width="21.9932" height="49.1094" fill="white" transform="translate(30.4519 0.435059) rotate(38)"/>
</clipPath>
</defs>
</svg>
