<svg width="64" height="81" viewBox="0 0 64 81" fill="none" xmlns="http://www.w3.org/2000/svg">
<path d="M5.00993 1.92578C3.58784 1.94059 2.49165 3.17011 2.52128 4.41444V74.0968C2.52128 75.4004 3.70635 76.5854 5.00993 76.5854H58.1012C59.4048 76.5854 60.5899 75.4004 60.5899 74.0968V22.6646C60.5899 22.0128 60.3233 21.361 59.864 20.9018L41.6139 2.65164C41.1547 2.19242 40.5029 1.92578 39.8511 1.92578H5.00993ZM7.49859 6.90309H37.3625V22.6646C37.3625 23.3312 37.6291 23.9533 38.0883 24.4274C38.5623 24.9014 39.1845 25.1532 39.8511 25.1532H55.6126V71.6081H7.49859V6.90309ZM42.3398 10.3991L52.1166 20.1759H42.3398V10.3991ZM31.5556 33.4487C30.1779 33.4487 29.0669 34.5598 29.0669 35.9374V53.1506L25.0229 49.1065C24.0452 48.1289 22.475 48.1289 21.4973 49.1065C20.5196 50.0842 20.5344 51.6248 21.4973 52.6321L29.6891 60.824C30.1483 61.3424 30.8149 61.6535 31.5556 61.6535C32.2963 61.6535 32.9629 61.3424 33.4221 60.824L41.6139 52.6321C42.5768 51.6396 42.5916 50.0842 41.6139 49.1065C40.6362 48.1289 39.066 48.1289 38.0883 49.1065L34.0442 53.1506V35.9374C34.0442 34.5598 32.9332 33.4487 31.5556 33.4487Z" fill="black"/>
</svg>
