<svg width="41" height="42" viewBox="0 0 41 42" fill="none" xmlns="http://www.w3.org/2000/svg">
<g clip-path="url(#clip0_1_436)">
<path fill-rule="evenodd" clip-rule="evenodd" d="M2.20738 1.05908C1.83832 1.05908 1.47728 1.2035 1.21252 1.46826C0.94776 1.73302 0.803345 2.09406 0.803345 2.46312V9.48331C0.803345 9.85237 0.94776 10.2134 1.21252 10.4782C1.47728 10.7429 1.8303 10.8873 2.20738 10.8873C2.58447 10.8873 2.93748 10.7429 3.20224 10.4782C3.467 10.2134 3.61142 9.86039 3.61142 9.48331V3.86716H9.22757C9.59663 3.86716 9.95767 3.72274 10.2224 3.45798C10.4872 3.19322 10.6316 2.8402 10.6316 2.46312C10.6316 2.09406 10.4872 1.73302 10.2224 1.46826C9.95767 1.2035 9.60465 1.05908 9.22757 1.05908H2.20738Z" fill="#FD350A"/>
<path fill-rule="evenodd" clip-rule="evenodd" d="M31.6922 1.05908C31.3231 1.05908 30.9621 1.2035 30.6973 1.46826C30.4325 1.73302 30.2881 2.08604 30.2881 2.46312C30.2881 2.83218 30.4325 3.19322 30.6973 3.45798C30.9621 3.72274 31.3151 3.86716 31.6922 3.86716H37.3083V9.48331C37.3083 9.85237 37.4527 10.2134 37.7175 10.4782C37.9822 10.7429 38.3353 10.8873 38.7123 10.8873C39.0894 10.8873 39.4424 10.7429 39.7072 10.4782C39.972 10.2134 40.1164 9.86039 40.1164 9.48331V2.46312C40.1164 2.09406 39.972 1.73302 39.7072 1.46826C39.4424 1.2035 39.0894 1.05908 38.7123 1.05908H31.6922Z" fill="#FD350A"/>
<path fill-rule="evenodd" clip-rule="evenodd" d="M38.7123 30.5439C38.3433 30.5439 37.9822 30.6884 37.7175 30.9531C37.4527 31.2179 37.3083 31.5709 37.3083 31.948V37.5641H31.6922C31.3231 37.5641 30.9621 37.7085 30.6973 37.9733C30.4325 38.2381 30.2881 38.5911 30.2881 38.9682C30.2881 39.3372 30.4325 39.6983 30.6973 39.963C30.9621 40.2278 31.3151 40.3722 31.6922 40.3722H38.7123C39.0814 40.3722 39.4424 40.2278 39.7072 39.963C39.972 39.6983 40.1164 39.3453 40.1164 38.9682V31.948C40.1164 31.5789 39.972 31.2179 39.7072 30.9531C39.4424 30.6964 39.0814 30.5439 38.7123 30.5439Z" fill="#FD350A"/>
<path fill-rule="evenodd" clip-rule="evenodd" d="M2.20738 30.5439C1.83832 30.5439 1.47728 30.6884 1.21252 30.9531C0.94776 31.2179 0.803345 31.5709 0.803345 31.948V38.9682C0.803345 39.3372 0.94776 39.6983 1.21252 39.963C1.47728 40.2278 1.8303 40.3722 2.20738 40.3722H9.22757C9.59663 40.3722 9.95767 40.2278 10.2224 39.963C10.4872 39.6983 10.6316 39.3453 10.6316 38.9682C10.6316 38.5991 10.4872 38.2381 10.2224 37.9733C9.95767 37.7085 9.60465 37.5641 9.22757 37.5641H3.61142V31.948C3.61142 31.5789 3.467 31.2179 3.20224 30.9531C2.93748 30.6964 2.57644 30.5439 2.20738 30.5439Z" fill="#FD350A"/>
<path fill-rule="evenodd" clip-rule="evenodd" d="M20.4599 8.0791C9.33989 8.0791 1.07613 19.8891 1.07613 19.8891C0.899625 20.1298 0.811371 20.4186 0.811371 20.7154C0.811371 21.0123 0.907648 21.3011 1.07613 21.5418C1.07613 21.5418 9.33989 33.3518 20.4599 33.3518C31.5798 33.3518 39.8516 21.5418 39.8516 21.5418C40.0281 21.3011 40.1164 21.0123 40.1164 20.7154C40.1164 20.4186 40.0201 20.1298 39.8516 19.8891C39.8516 19.8891 31.5798 8.0791 20.4599 8.0791ZM20.4599 10.8872C28.7958 10.8872 35.6636 19.3114 36.7788 20.7154C35.6636 22.1195 28.7958 30.5437 20.4599 30.5437C12.1239 30.5437 5.25615 22.1195 4.14095 20.7154C5.25615 19.3114 12.1239 10.8872 20.4599 10.8872Z" fill="#FD350A"/>
<path fill-rule="evenodd" clip-rule="evenodd" d="M20.4599 15.0996C17.371 15.0996 14.8437 17.6269 14.8437 20.7158C14.8437 23.8046 17.371 26.3319 20.4599 26.3319C23.5488 26.3319 26.076 23.8046 26.076 20.7158C26.076 17.6269 23.5488 15.0996 20.4599 15.0996ZM20.4599 17.9077C22.0244 17.9077 23.2679 19.1513 23.2679 20.7158C23.2679 22.2803 22.0244 23.5238 20.4599 23.5238C18.8954 23.5238 17.6518 22.2803 17.6518 20.7158C17.6518 19.1513 18.8954 17.9077 20.4599 17.9077Z" fill="#FD350A"/>
</g>
<defs>
<clipPath id="clip0_1_436">
<rect width="40.9979" height="41.0781" fill="white" transform="translate(0.0010376)"/>
</clipPath>
</defs>
</svg>
