<svg width="98" height="27" viewBox="0 0 98 27" fill="none" xmlns="http://www.w3.org/2000/svg">
<g clip-path="url(#clip0_1_648)">
<mask id="mask0_1_648" style="mask-type:luminance" maskUnits="userSpaceOnUse" x="0" y="-1" width="98" height="28">
<path d="M75.3036 10.3547C75.8044 10.3563 76.2933 10.507 76.708 10.7877L76.5222 11.26C76.1557 11.0049 75.717 10.8741 75.2706 10.8869C74.4408 10.8869 73.663 11.4537 73.663 12.3873V15.9015H73.1214V11.7371C73.1214 11.2049 73.1057 10.8711 72.4113 10.9499L72.394 10.4775C73.2741 10.3201 73.6536 10.561 73.6536 11.1955C74.0078 10.5452 74.6675 10.3106 75.3099 10.3453M81.4345 13.4454C80.8238 13.1241 80.1455 12.9525 79.4554 12.9447C78.6257 12.9447 77.7472 13.395 77.7802 14.2956C77.8149 15.13 78.5249 15.4969 79.2854 15.4969C80.1828 15.4969 81.1747 15.097 81.4172 14.1618V13.4548L81.4345 13.4454ZM79.2004 15.9802C78.2368 15.9802 77.2559 15.3804 77.2559 14.3302C77.2559 13.0958 78.2872 12.5117 79.3877 12.5117C80.0972 12.5104 80.7974 12.672 81.4345 12.9841V12.1543C81.4345 11.1042 80.4521 10.8208 79.5735 10.8208C78.9536 10.8104 78.3407 10.9538 77.7897 11.238L77.6716 10.7877C78.28 10.4827 78.9528 10.3283 79.6334 10.3374C80.8173 10.3374 81.951 10.8097 81.951 12.1543L81.9352 14.642C81.9352 15.2922 81.9021 15.6591 82.628 15.5756L82.6453 15.9425C81.7148 16.0999 81.4613 15.7598 81.4944 14.9096C81.096 15.7063 80.1088 15.9897 79.1941 15.9897L79.2004 15.9802ZM88.1165 11.5954C86.424 10.1941 84.056 10.8444 84.056 13.1447C84.056 14.379 84.733 15.4796 86.1028 15.4796C87.3214 15.4796 88.0819 14.5459 88.1165 13.4123V11.5954ZM88.1811 14.642C87.8079 15.5756 86.9955 15.9755 86.0146 15.9755C84.374 15.9755 83.4955 14.675 83.4955 13.1573C83.4955 10.6066 86.1343 9.58954 88.1149 11.0412V7.63565H88.6534V14.9065C88.6534 15.4056 88.7715 15.5725 89.3635 15.489L89.3792 15.9062C88.4487 16.0637 88.1795 15.7394 88.1795 14.9065L88.1811 14.642ZM95.1087 12.7416C95.2267 11.4568 94.3466 10.8066 93.1123 10.8066C91.8779 10.8066 91.0308 11.5245 90.908 12.7416H95.1087ZM95.5653 13.2139H90.9001C90.9001 14.7884 91.8983 15.4985 93.3358 15.5331C93.9942 15.5198 94.6436 15.3775 95.2472 15.1143L95.3669 15.5866C94.7316 15.8648 94.0467 16.0121 93.3531 16.0196C91.5095 16.0196 90.2578 14.9537 90.3428 13.003C90.4278 11.3514 91.5598 10.3689 93.1327 10.3689C94.9087 10.3705 95.8738 11.3876 95.57 13.2045L95.5653 13.2139ZM72.1752 18.4915C71.6615 18.2666 71.1079 18.1472 70.5472 18.1404C69.1302 18.1404 68.1461 18.8914 68.1461 20.4249C68.1461 22.075 69.127 22.8087 70.278 22.8087C70.9722 22.7986 71.6409 22.5451 72.1673 22.0923L72.1752 18.4915ZM72.1752 22.6921C71.6032 23.0753 70.9346 23.2892 70.2465 23.3093C68.8295 23.3424 67.6077 22.3914 67.6077 20.4407C67.6077 18.5734 68.8594 17.624 70.585 17.624C71.3231 17.651 72.0482 17.8266 72.7168 18.1404V23.6431C72.7168 25.3939 71.5659 26.1433 70.2465 26.1622C69.4566 26.165 68.6802 25.958 67.9966 25.5624L68.132 25.0617C68.7755 25.4357 69.5025 25.6425 70.2465 25.6631C71.3124 25.6631 72.1909 25.1136 72.1909 23.662V22.6953L72.1752 22.6921ZM76.9111 17.624C77.4117 17.6268 77.9003 17.7775 78.3155 18.057L78.1298 18.5293C77.7606 18.2741 77.3187 18.1454 76.8702 18.1624C76.042 18.1624 75.2643 18.7292 75.2643 19.6629V23.1755H74.7226V19.0079C74.7226 18.4742 74.7053 18.1404 74.0126 18.2207L73.9952 17.7484C74.8754 17.5909 75.2469 17.8334 75.2469 18.4663C75.6091 17.8066 76.2845 17.5909 76.9111 17.624ZM84.0324 20.4407C84.0324 17.3406 79.3468 17.3406 79.3468 20.4407C79.3468 23.5093 84.0324 23.5266 84.0324 20.4407ZM78.8052 20.4407C78.8052 16.6903 84.5913 16.6903 84.5913 20.4407C84.5913 24.191 78.8052 24.1769 78.8052 20.4407ZM86.5531 17.7405V21.0468C86.5531 22.1301 87.2805 22.7976 88.3464 22.7976C89.4485 22.8134 90.0877 22.0797 90.0877 20.9634V17.7578H90.6293V21.7931C90.6293 22.6607 90.7144 22.8449 91.3237 22.7378L91.3394 23.1881C90.5113 23.3046 90.1397 23.1708 90.1397 22.3033C89.6311 23.0543 89.0738 23.2873 88.211 23.2873C86.8239 23.2873 85.9957 22.3426 85.9957 21.0374V17.731L86.5531 17.7405ZM93.3705 21.9915C95.0457 23.3755 97.431 22.7425 97.431 20.4171C97.431 19.2 96.7366 18.0995 95.3999 18.0995C94.1829 18.0995 93.4208 19.0331 93.3878 20.1667L93.3705 21.9915ZM93.3028 18.8237C93.742 17.9231 94.5214 17.5909 95.485 17.5909C97.0909 17.5909 97.9883 18.9245 97.9883 20.4076C97.9883 22.9929 95.3669 23.9926 93.3705 22.5426V25.9607H92.8288V19.3905C92.8288 18.5734 92.8966 18.0066 92.1188 18.131L92.1015 17.6822C93.0146 17.5248 93.3028 17.9153 93.3028 18.6647V18.8237ZM22.0871 12.4047C20.5803 11.1545 19.8372 9.38644 19.8372 7.11923C19.8131 5.77318 20.2417 4.45803 21.0543 3.38462C21.8667 2.29983 22.9436 1.48426 24.337 0.882817C25.7667 0.2852 27.303 -0.0153167 28.8525 -0.000450781C30.3413 -0.00155176 31.8166 0.281121 33.1996 0.832435C34.4699 1.32429 35.6313 2.06091 36.6177 3.00046C37.4978 3.88372 37.9875 4.78431 38.0898 5.6849C38.1191 6.21235 38.0019 6.73762 37.7513 7.20267C37.5181 7.59394 37.185 7.91616 36.7862 8.13632C36.425 8.34104 36.0173 8.44947 35.6022 8.45121C34.7445 8.45618 33.9166 8.13673 33.2846 7.55692C32.8208 6.92155 32.2313 6.38832 31.5527 5.99034C30.8757 5.57311 29.9783 5.37316 28.8761 5.37316C27.8276 5.37316 26.9868 5.55737 26.3381 5.9069C26.0403 6.05683 25.7915 6.28861 25.6208 6.57502C25.4501 6.86144 25.3647 7.1906 25.3746 7.52386C25.3707 7.74438 25.4123 7.96333 25.4968 8.16705C25.5813 8.37076 25.7069 8.55486 25.8658 8.70785C26.2831 9.08101 26.7723 9.36498 27.3033 9.54231C27.933 9.79107 28.9438 10.1249 30.3482 10.5594C32.987 11.3923 34.9661 12.4267 36.2682 13.6595C37.5703 14.8923 38.2142 16.4274 38.2142 18.312C38.2142 19.9463 37.7734 21.3476 36.8948 22.53C36.0076 23.7248 34.8095 24.6533 33.431 25.2144C31.9652 25.828 30.3912 26.1412 28.8021 26.1355C27.2141 26.1414 25.6382 25.8586 24.1512 25.301C22.8267 24.8334 21.6077 24.1084 20.5646 23.1676C19.6341 22.3001 19.1602 21.3995 19.0925 20.5162C19.0804 20.1587 19.1413 19.8024 19.2715 19.4692C19.4017 19.1359 19.5985 18.8327 19.8498 18.5781C20.0809 18.3169 20.3646 18.1077 20.6824 17.9641C21.0002 17.8206 21.3448 17.746 21.6935 17.7452C22.624 17.7452 23.3514 18.0286 23.8757 18.6127C24.2646 19.2425 24.8896 19.7794 25.765 20.1966C26.7197 20.6496 27.7679 20.8708 28.8242 20.8422C29.9405 20.8422 30.8363 20.6422 31.5307 20.225C32.225 19.8077 32.5619 19.2409 32.5619 18.5246C32.5747 18.0397 32.4126 17.5664 32.1053 17.191C31.8015 16.8226 31.3276 16.4904 30.6883 16.1897C29.8195 15.8121 28.9251 15.4965 28.0118 15.245C25.5383 14.6215 23.5923 13.6548 22.0871 12.4047ZM15.4224 16.3408C15.4292 17.1848 15.2008 18.0141 14.7627 18.7355C14.3237 19.4549 13.7059 20.0483 12.9694 20.458C12.2091 20.8806 11.3517 21.0977 10.4818 21.0878C9.6022 21.0955 8.73516 20.8787 7.96267 20.458C7.22257 20.0533 6.60359 19.4587 6.16937 18.7355C5.73272 18.0135 5.50844 17.1829 5.52227 16.3392V10.0036C5.51199 9.15695 5.74122 8.32461 6.18354 7.60258C6.62427 6.88527 7.24244 6.29366 7.97842 5.88485C8.74133 5.46897 9.59636 5.25105 10.4653 5.25105C11.3342 5.25105 12.1892 5.46897 12.9521 5.88485C13.6913 6.28872 14.3101 6.88146 14.7454 7.60258C15.1846 8.32589 15.4131 9.15746 15.4051 10.0036L15.4224 16.3408ZM20.933 16.5911V12.6707C20.8162 12.5879 20.7037 12.4991 20.5961 12.4047C19.0893 11.1545 18.3462 9.38644 18.3462 7.11923C18.3291 6.11114 18.5611 5.11443 19.0216 4.21751C18.143 3.02649 17.0145 2.04203 15.7153 1.33311C14.1023 0.446474 12.2893 -0.012612 10.4487 -0.000450781C8.62072 -0.0122754 6.82048 0.447002 5.22155 1.33311C3.66182 2.17596 2.34945 3.4118 1.41452 4.91814C0.483973 6.38298 -0.00320123 8.08563 0.0116837 9.82099V16.4888C0.0116837 18.4569 0.435212 20.2077 1.29644 21.6924C2.11139 23.1309 3.30503 24.3185 4.74764 25.1262C6.17412 25.9239 7.78315 26.3378 9.41747 26.3276C10.7274 26.3233 12.0165 25.999 13.1725 25.3829C14.3222 24.8 15.3366 23.9819 16.1498 22.9818V23.2149C16.1498 24.1501 16.3529 24.8334 16.7796 25.2994C17.2063 25.7655 17.7778 26.0001 18.5399 26.0001C19.3019 26.0001 19.875 25.7497 20.3158 25.2333C20.5073 24.9905 20.6612 24.7204 20.7724 24.4319C20.752 24.4278 20.7339 24.416 20.722 24.3988C19.8405 24.1988 19.0527 23.7058 18.4874 23.0003C17.9221 22.2949 17.6126 21.4187 17.6093 20.5147V20.4312C17.6261 19.5026 17.9683 18.6093 18.5763 17.9072C19.1843 17.2051 20.0195 16.7388 20.9362 16.5896L20.933 16.5911ZM59.7748 10.0036C59.7856 9.15709 59.5569 8.32474 59.1151 7.60258C58.68 6.88131 58.0611 6.28853 57.3218 5.88485C56.5604 5.46632 55.7046 5.24952 54.8357 5.25507C53.9664 5.24539 53.1095 5.46245 52.3497 5.88485C51.6087 6.28805 50.9882 6.88084 50.5516 7.60258C50.1146 8.32681 49.8863 9.15777 49.8919 10.0036V16.3392C49.8826 17.1841 50.1112 18.0145 50.5516 18.7355C50.9865 19.457 51.6054 20.0498 52.3449 20.4533C53.1167 20.8758 53.9842 21.0927 54.8641 21.0831C55.7334 21.0927 56.5902 20.8757 57.3501 20.4533C58.0919 20.0507 58.7131 19.4578 59.1497 18.7355C59.5868 18.0113 59.8151 17.1804 59.8094 16.3345V10.0036H59.7748ZM60.0897 1.33311C61.6414 2.18068 62.947 3.41582 63.8794 4.91814C64.8036 6.38588 65.2908 8.08649 65.2838 9.82099V23.1928C65.2838 24.043 65.0639 24.7253 64.6241 25.2396C64.4034 25.4911 64.1296 25.6905 63.8225 25.8234C63.5153 25.9562 63.1826 26.0193 62.8481 26.0079C62.0861 26.0079 61.4941 25.7733 61.0879 25.3073C60.6817 24.8413 60.4801 24.1406 60.4801 23.2227V22.9866C59.6629 23.9827 58.6495 24.8 57.5028 25.3876C56.3481 26.0071 55.0582 26.3316 53.7478 26.3323C52.1136 26.343 50.5046 25.9296 49.0779 25.1325C47.6349 24.3247 46.4412 23.1364 45.6267 21.6971C44.7655 20.214 44.342 18.4805 44.342 16.5014V9.83673C44.3353 8.10277 44.8224 6.40275 45.7464 4.93546C46.6816 3.42767 47.9959 2.19153 49.5582 1.35043C51.1688 0.463565 52.9798 0.00392069 54.8184 0.0152938C56.6625 -0.0143582 58.4822 0.440021 60.096 1.33311H60.0897ZM44.1798 21.6924C43.3154 20.2077 42.8935 18.4742 42.8935 16.4967V9.82099C42.8865 8.08649 43.3736 6.38588 44.2979 4.91814C44.5509 4.50913 44.8335 4.1192 45.1434 3.75147V3.18467C45.1498 2.8265 45.0843 2.47068 44.9507 2.1383C44.8171 1.80592 44.6181 1.50374 44.3656 1.24967C44.1069 0.996154 43.7996 0.797551 43.4622 0.665787C43.1248 0.534023 42.7643 0.471817 42.4023 0.482906C42.0381 0.473526 41.6756 0.536463 41.3359 0.668076C40.9962 0.799689 40.686 0.997365 40.4232 1.24967C40.1651 1.50051 39.9614 1.80171 39.8246 2.13458C39.6879 2.46744 39.621 2.82487 39.6281 3.18467V23.1928C39.6242 23.5496 39.6926 23.9035 39.8292 24.2331C39.9659 24.5627 40.1679 24.8612 40.4232 25.1105C40.9561 25.6114 41.6599 25.8903 42.3912 25.8903C43.1226 25.8903 43.8264 25.6114 44.3593 25.1105C44.6134 24.8611 44.8135 24.5623 44.9473 24.2324C45.081 23.9025 45.1457 23.5487 45.1371 23.1928V23.0354C44.7745 22.6203 44.4539 22.1705 44.1798 21.6924ZM69.4341 10.4697H71.5659V10.9215H69.4341V13.8547C69.4341 15.5063 70.2291 15.8055 71.769 15.2717L71.854 15.7441C69.9757 16.3739 68.8924 15.8275 68.8924 13.8547V10.9215L67.6408 10.8869V10.4697H68.8924L68.9444 8.80389H69.4451L69.4341 10.4697Z" fill="white"/>
</mask>
<g mask="url(#mask0_1_648)">
<path d="M97.9883 0H0.0116882V26.3438H97.9883V0Z" fill="url(#paint0_linear_1_648)"/>
</g>
</g>
<defs>
<linearGradient id="paint0_linear_1_648" x1="49.0008" y1="8.80907" x2="49.0008" y2="15.9949" gradientUnits="userSpaceOnUse">
<stop stop-color="#F48220"/>
<stop offset="1" stop-color="#F16522"/>
</linearGradient>
<clipPath id="clip0_1_648">
<rect width="97.9766" height="26.3438" fill="white" transform="translate(0.0116882)"/>
</clipPath>
</defs>
</svg>
