<svg width="270" height="57" viewBox="0 0 270 57" fill="none" xmlns="http://www.w3.org/2000/svg">
<path d="M27.7674 0.000835172C31.3999 -0.0279929 34.9996 0.689772 38.3433 2.10962C41.6245 3.47209 44.6171 5.44544 47.1618 7.92475C49.8312 10.534 51.9436 13.6574 53.3715 17.1062C54.7994 20.5551 55.513 24.2577 55.4692 27.9901C55.5129 31.7712 54.7504 35.5181 53.2326 38.9814C51.7938 42.2645 49.7322 45.2376 47.1618 47.736C44.6171 50.2153 41.6245 52.1887 38.3433 53.5512C34.9897 54.9753 31.3787 55.6932 27.7355 55.6599C24.0772 55.6746 20.4553 54.935 17.0957 53.4873C10.4713 50.6957 5.15879 45.486 2.23834 38.9175C0.720738 35.4429 -0.04161 31.6856 0.00175118 27.8943C-0.0390241 24.1135 0.72331 20.3672 2.23834 16.9031C5.14191 10.3116 10.4747 5.09319 17.1276 2.33328C20.4895 0.8965 24.1114 0.167773 27.7674 0.192543V0.000835172ZM27.7674 10.9282C25.3908 10.9019 23.0296 11.3135 20.802 12.1423C18.7178 12.9199 16.8149 14.116 15.2106 15.657C13.573 17.16 12.2671 18.9883 11.3764 21.0248C10.4543 23.2518 9.99763 25.644 10.0345 28.0541C9.9949 30.4644 10.4517 32.8571 11.3764 35.0833C12.2407 37.1196 13.513 38.9573 15.1147 40.4831C16.7277 42.0129 18.6282 43.2075 20.7062 43.9977C22.9356 44.8163 25.2969 45.2171 27.6716 45.1799C30.0521 45.185 32.4133 44.7518 34.6369 43.9019C36.7092 43.1174 38.6043 41.9279 40.2117 40.4028C41.8191 38.8777 43.1065 37.0476 43.9987 35.0194C44.9207 32.7588 45.3771 30.3354 45.3406 27.8943C45.3737 25.4638 44.9173 23.0515 43.9987 20.8011C43.1455 18.7839 41.896 16.9586 40.3243 15.4333C38.7068 13.8857 36.7943 12.6795 34.7008 11.8867C32.4822 11.0624 30.1343 10.6405 27.7674 10.6406V10.9282Z" fill="white"/>
<path d="M103.428 16.3926L109.499 54.9258H99.9134L96.5585 34.5729L87.5802 54.9258H80.1036L71.1253 34.5729L67.6746 54.9258H58.0892L63.9043 16.3926H72.4353L83.2668 40.9951L94.0983 16.3926H103.428Z" fill="white"/>
<path d="M133.43 46.5206C135.786 46.5299 138.121 46.0739 140.3 45.1787C142.221 44.4764 143.928 43.2874 145.252 41.728L148.16 49.0767C146.784 51.2514 144.809 52.9823 142.472 54.0611C139.598 55.4907 136.416 56.1929 133.207 56.106C130.414 56.0959 127.649 55.5537 125.059 54.5085C122.62 53.6154 120.383 52.247 118.477 50.4826C116.581 48.6938 115.098 46.513 114.132 44.0923C113.044 41.4156 112.512 38.5459 112.566 35.6572C112.548 32.9787 113.003 30.3181 113.908 27.7972C114.8 25.4294 116.146 23.2587 117.87 21.4069C119.627 19.5288 121.732 18.0097 124.068 16.9338C126.662 15.7837 129.476 15.2166 132.312 15.2723C134.993 15.2277 137.648 15.7959 140.076 16.9338C142.331 18.0062 144.342 19.5284 145.987 21.4069C147.641 23.282 148.93 25.4492 149.789 27.7972C150.712 30.2589 151.178 32.8685 151.163 35.4975V37.2228C151.15 37.748 151.096 38.2714 151.003 38.7884H122.439C122.601 39.946 123.021 41.0525 123.668 42.0259C124.315 42.9993 125.172 43.8147 126.177 44.4119C128.442 45.6646 131.003 46.2828 133.59 46.2011L133.43 46.5206ZM138.287 26.7748C136.444 25.7086 134.345 25.1671 132.216 25.2091C129.986 25.1644 127.783 25.7042 125.826 26.7748C124.939 27.2295 124.171 27.8852 123.583 28.6896C122.995 29.4941 122.603 30.4249 122.439 31.4077H141.162C141.054 30.4712 140.741 29.5701 140.244 28.7691C139.746 27.9681 139.078 27.2871 138.287 26.7748Z" fill="white"/>
<path d="M170.206 1.21614C172.558 1.19247 174.902 1.49352 177.172 2.11077C179.212 2.6397 181.124 3.57423 182.795 4.85858C184.353 6.09704 185.628 7.65503 186.533 9.42762C187.477 11.4225 187.937 13.6119 187.875 15.8179C187.948 17.9083 187.532 19.987 186.661 21.8886C185.839 23.5435 184.699 25.0201 183.306 26.234C185.518 27.3258 187.387 29.0062 188.706 31.0906C190.141 33.5353 190.84 36.3421 190.719 39.1743C190.773 41.4516 190.28 43.7087 189.281 45.7562C188.322 47.6483 186.972 49.3147 185.319 50.6448C183.632 52.044 181.705 53.1265 179.632 53.8399C177.446 54.6117 175.144 55.0008 172.826 54.9901H156.851V1.21614H170.142H170.206ZM166.149 23.1986H171.708C173.296 23.2047 174.823 22.5848 175.958 21.4732C176.541 20.9329 177.002 20.2743 177.311 19.5415C177.619 18.8087 177.768 18.0185 177.747 17.2237C177.782 15.6483 177.197 14.1221 176.117 12.9742C175.584 12.3802 174.927 11.9095 174.193 11.595C173.46 11.2805 172.666 11.1296 171.868 11.153H166.404L166.149 23.1986ZM166.149 44.9574H174.296C175.152 45.011 176.009 44.8788 176.808 44.57C177.608 44.2611 178.332 43.7829 178.929 43.1682C179.51 42.5927 179.969 41.9051 180.276 41.1472C180.584 40.3892 180.734 39.5767 180.718 38.7589C180.716 37.9603 180.565 37.1691 180.271 36.4264C179.96 35.693 179.503 35.03 178.929 34.4774C178.303 33.9504 177.617 33.4999 176.884 33.1355C176.113 32.7827 175.272 32.608 174.424 32.6242H166.149V44.9574Z" fill="white"/>
<path d="M205.449 39.4933L222.862 16.3926H232.447V54.9258H223.022V31.7931L205.608 54.9258H196.023V16.3926H205.449V39.4933Z" fill="white"/>
<path d="M257.944 26.4892V54.9258H248.359V26.4892H236.441V16.3926H269.83V26.4892H257.944Z" fill="white"/>
</svg>
