<svg width="48" height="54" viewBox="0 0 48 54" fill="none" xmlns="http://www.w3.org/2000/svg">
<g clip-path="url(#clip0_1_466)">
<path d="M20.7828 25.1138C20.8043 25.1138 20.8366 25.1138 20.8688 25.103C21.2132 25.06 21.4606 24.7372 21.4284 24.3821C21.353 23.8441 21.5252 23.2954 21.891 22.8865C22.2569 22.4776 22.7734 22.2409 23.3221 22.2409H26.8191C27.1742 22.2409 27.454 21.9504 27.454 21.606C27.454 21.2617 27.1634 20.9712 26.8191 20.9712H23.3221C22.4075 20.9712 21.536 21.3586 20.9334 22.058C20.3308 22.7466 20.0511 23.6612 20.1587 24.5758C20.2017 24.8771 20.4707 25.1138 20.7828 25.1138Z" fill="#FD350A"/>
<path d="M9.40943 25.2647C9.16195 25.5122 9.16195 25.9211 9.40943 26.1686C9.65691 26.416 10.0658 26.4268 10.3133 26.1686C11.2386 25.2432 12.745 25.2432 13.6704 26.1686C13.7995 26.2977 13.9609 26.3515 14.1223 26.3515C14.2837 26.3515 14.4451 26.2869 14.5742 26.1686C14.8217 25.9211 14.8217 25.5122 14.5742 25.2647C13.1432 23.8336 10.8297 23.8336 9.40943 25.2647Z" fill="#FD350A"/>
<path d="M28.1856 26.1683C28.4331 25.9208 28.4331 25.5119 28.1856 25.2645C26.7653 23.8441 24.4411 23.8441 23.0208 25.2645C22.7733 25.5119 22.7733 25.9208 23.0208 26.1683C23.1499 26.2974 23.3113 26.3512 23.4727 26.3512C23.6341 26.3512 23.7955 26.2867 23.9247 26.1683C24.85 25.2429 26.3564 25.2429 27.2818 26.1683C27.5293 26.4158 27.9381 26.4158 28.1856 26.1683Z" fill="#FD350A"/>
<path d="M21.1809 34.3137C19.9004 35.5941 17.6946 35.5941 16.4142 34.3137C16.1667 34.0662 15.7686 34.0554 15.5103 34.3137C15.2629 34.5612 15.2629 34.9701 15.5103 35.2175C16.3927 36.0999 17.5548 36.5841 18.7922 36.5841C20.0296 36.5841 21.2024 36.0999 22.074 35.2175C22.3214 34.9701 22.3214 34.5612 22.074 34.3137C21.8372 34.0662 21.4284 34.0662 21.1809 34.3137Z" fill="#FD350A"/>
<path d="M34.4803 51.8955L46.4454 51.9171C46.6498 51.9171 46.8328 51.831 46.9619 51.6588C47.0802 51.4867 47.1125 51.2822 47.0695 51.0993C45.9612 47.6023 43.8415 44.073 41.8186 40.6729C38.3861 34.9808 34.8676 29.0843 36.0835 23.3707C37.2133 18.1414 36.2234 12.7399 33.3505 8.58649C29.918 3.5508 24.6133 0.634837 18.6523 0.591797C12.9172 0.634837 7.48338 3.62612 4.09397 8.58649C1.23181 12.7291 0.241885 18.1306 1.36093 23.3707C1.95273 26.1038 2.80277 28.8584 3.64205 31.5376C5.76177 38.3057 7.73086 44.6971 5.74025 51.0885C5.69721 51.293 5.71873 51.4974 5.84785 51.6696C5.96621 51.8202 6.15989 51.9278 6.36433 51.9278C10.1519 51.9278 13.1324 47.2903 13.4337 41.1893C15.0692 41.9533 16.8769 42.4052 18.8029 42.4052C20.7612 42.4052 22.6012 41.9425 24.2582 41.1463C24.5272 46.9459 27.2603 51.4974 30.8003 51.9063C30.9725 51.9278 31.1769 51.874 31.3168 51.7341C31.4567 51.5943 31.5213 51.4221 31.4997 51.2392C31.3814 48.9581 30.9402 46.5909 30.4237 44.2344C31.8441 46.6554 33.1137 49.0872 33.8669 51.4759C33.953 51.7341 34.2113 51.8955 34.4803 51.8955ZM18.8029 41.1033C12.5298 41.1033 7.42958 36.003 7.42958 29.7514V23.5429C8.87142 23.4245 10.2917 23.1017 11.7659 22.5315C12.0026 22.4239 12.2608 22.327 12.4975 22.2087H14.2837C14.8325 22.2087 15.3274 22.4454 15.704 22.8543C16.0591 23.2631 16.2313 23.8227 16.1775 24.3714L15.2844 30.8167C15.2629 30.9996 15.3167 31.1718 15.435 31.3332C15.5749 31.473 15.7471 31.5376 15.93 31.5376H18.7922C19.1365 31.5376 19.427 31.2686 19.427 30.9028C19.427 30.5477 19.1365 30.2572 18.7922 30.2572H16.6617L17.4364 24.5328C17.5548 23.629 17.2642 22.7036 16.6509 22.0042C16.1559 21.4447 15.4781 21.1004 14.7356 20.982C17.6839 19.1313 20.277 16.3445 22.2676 12.8797C23.2898 15.4299 24.7962 17.5711 26.6147 18.9807C27.723 19.8522 28.8958 20.4225 30.144 20.7023V29.7299C30.1547 36.0138 25.0652 41.1033 18.8029 41.1033Z" fill="#FD350A"/>
</g>
<defs>
<clipPath id="clip0_1_466">
<rect width="47.9897" height="53.0469" fill="white" transform="translate(0.00515747)"/>
</clipPath>
</defs>
</svg>
