<svg width="48" height="45" viewBox="0 0 48 45" fill="none" xmlns="http://www.w3.org/2000/svg">
<g clip-path="url(#clip0_1_429)">
<path fill-rule="evenodd" clip-rule="evenodd" d="M24 4.86932C39.8024 -6.19865 50.1247 9.03778 46.5762 20.5999H30.1C29.4621 20.5999 28.8422 20.9682 28.5548 21.5881L26.4346 26.1698L21.2959 8.14839C20.9006 6.75591 19.0051 6.45944 18.2235 7.71717L12.7164 16.6201L10.7131 11.104C10.2369 9.77444 8.40424 9.5768 7.66757 10.8076L1.55863 20.9772C-2.35829 9.38814 8.01794 -6.3334 24 4.86932ZM45.0399 23.9957C44.1505 25.4421 42.9737 26.7627 41.5003 27.8677C35.6609 32.5752 27.7642 39.7173 25.7249 41.8015L24 43.5174L21.8888 41.5679C18.9781 38.7919 11.8809 32.6381 6.49968 27.8767C5.22399 26.9154 4.18188 25.8104 3.34639 24.5886L8.73664 15.6139L10.7131 21.067C11.2161 22.4415 13.0848 22.5673 13.7855 21.3186L19.0769 12.766L24.4133 31.4971C24.6738 32.4045 26.3538 33.4197 27.6205 31.6768L31.169 23.9957H45.0399Z" fill="#FD350A"/>
</g>
<defs>
<clipPath id="clip0_1_429">
<rect width="47.9911" height="44.3438" fill="white" transform="translate(0.00442505)"/>
</clipPath>
</defs>
</svg>
