<svg width="411" height="71" viewBox="0 0 411 71" fill="none" xmlns="http://www.w3.org/2000/svg">
<g clip-path="url(#clip0_11_3175)">
<path d="M0.0205994 32.0207C0.0205994 16.921 0.0205994 9.37122 4.69059 4.70124C9.36057 0.03125 16.9104 0.03125 32.01 0.03125H34.6563C49.756 0.03125 57.3058 0.03125 61.9757 4.70124C66.6457 9.37122 66.6457 16.921 66.6457 32.0207V34.667C66.6457 49.7666 66.6457 57.3164 61.9757 61.9864C57.3058 66.6564 49.756 66.6564 34.6563 66.6564H32.01C16.9104 66.6564 9.36057 66.6564 4.69059 61.9864C0.0205994 57.3164 0.0205994 49.7666 0.0205994 34.667L0.0205994 32.0207Z" fill="#FF6E74"/>
<path d="M35.5903 48.1318C20.4907 48.1318 11.8512 37.7022 11.4621 20.2676H19.0119C19.2454 33.0322 24.8494 38.4805 29.2858 39.5702V20.2676H36.4465V31.3199C40.8051 30.8529 45.3973 25.7937 46.954 20.2676H54.1146C52.9471 27.0391 47.9658 32.0982 44.3855 34.1219C47.888 35.8342 53.5698 40.1929 55.7491 48.1318H47.888C46.2535 42.8392 42.0505 38.714 36.4465 38.1692V48.1318H35.5903Z" fill="white"/>
<path d="M130.158 67.2012C148.682 67.2012 163.781 52.1794 163.781 33.5773C163.704 15.053 148.682 0.03125 130.158 0.03125C111.555 0.03125 96.5337 15.053 96.5337 33.6552C96.5337 52.1794 111.555 67.2012 130.158 67.2012Z" fill="#FF6E74"/>
<path d="M110.31 33.4999L133.115 24.0821C135.372 23.0703 143 19.9569 143 19.9569C143 19.9569 146.503 18.5559 146.191 21.9028C146.113 23.3038 145.335 28.0516 144.557 33.2664L142.144 48.6774C142.144 48.6774 141.91 50.9345 140.276 51.3237C138.641 51.7129 135.839 49.9227 135.372 49.5335C134.983 49.2222 128.056 44.8635 125.488 42.6842C124.787 42.0615 124.009 40.8941 125.565 39.5709C129.068 36.3019 133.271 32.3324 135.839 29.7639C137.007 28.5964 138.174 25.8723 133.271 29.1413L119.494 38.4812C119.494 38.4812 117.938 39.4931 114.98 38.5591C112.022 37.7029 108.598 36.5354 108.598 36.5354C108.598 36.5354 106.341 35.0566 110.31 33.4999Z" fill="white"/>
<path d="M222.312 68.2909C240.758 68.2909 255.702 53.3469 255.702 34.9005C255.702 16.454 240.758 1.58789 222.312 1.58789C203.866 1.58789 188.922 16.5318 188.922 34.9783C188.922 53.4247 203.943 68.2909 222.312 68.2909Z" fill="#FFAA2C"/>
<path fill-rule="evenodd" clip-rule="evenodd" d="M221.378 1.58789C221.378 15.053 220.288 22.7585 215.151 27.7398C210.014 32.7211 202.542 33.733 188.999 33.9665V35.9123C202.542 35.9123 210.17 37.0019 215.151 42.1389C220.21 47.1981 220.911 54.7479 221.378 68.2909H223.324C223.324 54.7479 224.413 47.1203 229.55 42.1389C234.61 37.0798 242.159 36.3793 255.702 35.9123V33.9665C242.159 33.9665 234.532 32.8768 229.55 27.7398C224.491 22.6807 223.557 15.053 223.324 1.58789H221.378Z" fill="white"/>
<path d="M222.312 68.2909C240.758 68.2909 255.702 53.3469 255.702 34.9005C255.702 16.454 240.758 1.58789 222.312 1.58789C203.866 1.58789 188.922 16.5318 188.922 34.9783C188.922 53.4247 203.943 68.2909 222.312 68.2909Z" fill="#FF6E74"/>
<path fill-rule="evenodd" clip-rule="evenodd" d="M221.378 1.58789C221.378 15.053 220.288 22.7585 215.151 27.7398C210.014 32.7211 202.542 33.733 188.999 33.9665V35.9123C202.542 35.9123 210.17 37.0019 215.151 42.1389C220.21 47.1981 220.911 54.7479 221.378 68.2909H223.324C223.324 54.7479 224.413 47.1203 229.55 42.1389C234.61 37.0798 242.159 36.3793 255.702 35.9123V33.9665C242.159 33.9665 234.532 32.8768 229.55 27.7398C224.491 22.6807 223.557 15.053 223.324 1.58789H221.378Z" fill="white"/>
<path d="M285.123 35.8348L285.824 16.5322H300.301V53.1916H282.243C284.189 47.5876 285.201 41.7501 285.123 35.8348ZM278.663 70.5484V59.9631H305.593V70.4706H313.766V53.0359H309.329V9.76074H278.663L277.807 34.6673C278.04 41.0497 276.873 47.3541 274.304 53.1916H270.802V70.5484H278.663Z" fill="#FF6E74"/>
<path d="M328.398 53.8916C324.429 53.8916 320.615 52.7241 317.346 50.6227V57.6276C320.926 59.8848 325.129 60.9745 329.41 60.6631C338.595 60.6631 343.498 56.538 343.498 49.066C343.42 47.0423 342.642 45.1743 341.241 43.6955C339.84 42.2167 338.05 41.3605 336.026 41.127C337.894 40.66 339.606 39.4925 340.774 37.9359C341.941 36.3792 342.486 34.4334 342.408 32.4875C342.408 26.2609 337.583 22.9141 329.722 22.9141C325.674 22.7584 321.627 23.8481 318.124 25.9496V32.8767C321.16 30.6974 324.74 29.6077 328.476 29.6077C331.667 29.6077 333.691 31.0865 333.691 33.8107C333.691 36.5349 331.979 38.1694 328.398 38.1694H322.95V44.7852H328.398C332.835 44.7852 334.547 46.0305 334.547 49.2217C334.547 52.4128 332.446 53.8916 328.398 53.8916Z" fill="#FF6E74"/>
<path d="M362.022 29.608C366.225 29.608 367.782 33.1105 367.782 37.7026V38.4031H355.562C355.64 32.7213 357.975 29.608 362.022 29.608ZM376.032 57.4723V50.5451C372.53 52.7244 368.56 53.8919 364.435 53.8919C358.131 53.8919 355.718 50.9343 355.407 44.8633H376.11V40.349C376.11 27.6622 370.351 22.9922 361.945 22.9922C351.437 22.9922 346.456 31.009 346.456 41.9835C346.456 54.5924 352.682 60.7412 363.813 60.7412C368.093 60.8969 372.374 59.8072 376.032 57.4723Z" fill="#FF6E74"/>
<path d="M402.184 23.6143V38.0134H390.743V23.6143H382.103V59.9623H390.743V44.7849H402.184V59.9623H410.824V23.6143H402.184Z" fill="#FF6E74"/>
</g>
<defs>
<clipPath id="clip0_11_3175">
<rect width="410.959" height="70.8281" fill="white" transform="translate(0.0205994 0.03125)"/>
</clipPath>
</defs>
</svg>
