<svg width="48" height="47" viewBox="0 0 48 47" fill="none" xmlns="http://www.w3.org/2000/svg">
<g clip-path="url(#clip0_1_452)">
<path fill-rule="evenodd" clip-rule="evenodd" d="M23.2935 40.6219V5.37594C22.7077 3.51499 21.3292 2.00728 19.5372 1.2405C17.7452 0.473725 15.7033 0.534033 13.9543 1.4042C12.2054 2.27436 10.9217 3.85961 10.4392 5.74641C12.7309 5.97902 14.8073 7.20242 16.1168 9.10645C16.2977 9.36491 16.2288 9.72676 15.9704 9.89907C15.7119 10.08 15.35 10.0111 15.1777 9.75261C13.9974 8.03813 12.0934 6.97842 10.0171 6.86642C7.94072 6.76303 5.93331 7.62458 4.5893 9.20122C3.23666 10.7865 2.7025 12.8973 3.13328 14.9305C3.21943 15.3354 3.34005 15.7318 3.50374 16.1108C4.64099 15.4991 5.91608 15.1718 7.2084 15.1804C7.44102 15.1804 7.67364 15.189 7.90626 15.2148C8.13026 15.2321 8.36288 15.2665 8.5955 15.3096C8.90566 15.3699 9.11243 15.6628 9.06074 15.973C9.00904 16.2832 8.71612 16.4899 8.40596 16.4382C8.21642 16.4038 8.01826 16.3779 7.8201 16.3607C7.62195 16.3435 7.42379 16.3348 7.22564 16.3348C5.44223 16.3176 3.72775 17.0155 2.46127 18.2733C1.19479 19.5312 0.479706 21.2371 0.479706 23.0205C0.479706 24.8039 1.19479 26.5097 2.46127 27.7676C3.71052 29.0255 5.425 29.7233 7.2084 29.7061C7.40656 29.7061 7.60472 29.6975 7.80287 29.6802C8.00103 29.663 8.19919 29.6372 8.38873 29.6027C8.69888 29.551 9.00043 29.7578 9.05212 30.0679C9.10381 30.3781 8.89704 30.6796 8.58688 30.7313C8.36288 30.7744 8.13026 30.8003 7.89764 30.8261C7.66503 30.8433 7.43241 30.8606 7.19979 30.8606C5.89885 30.8606 4.61514 30.5418 3.4779 29.9215C2.62496 31.9806 2.85758 34.3154 4.08098 36.1763C5.313 38.0287 7.38071 39.1487 9.60351 39.1659C11.8263 39.1831 13.9113 38.089 15.1691 36.2539C15.35 35.9954 15.7033 35.9265 15.9617 36.1074C16.2202 36.2883 16.2891 36.6416 16.1082 36.9C14.8073 38.804 12.7309 40.0274 10.4306 40.2601C10.9131 42.1555 12.1968 43.7407 13.9457 44.6023C15.6947 45.4638 17.7365 45.5241 19.5286 44.766C21.3378 43.9992 22.7077 42.4829 23.2935 40.6219ZM24.448 5.37594V40.6219C25.0339 42.4829 26.4123 43.9906 28.2044 44.7574C29.9964 45.5241 32.0383 45.4638 33.7872 44.5937C35.5361 43.7235 36.8198 42.1382 37.3023 40.2515C35.0106 40.0188 32.9343 38.7954 31.6247 36.8914C31.4438 36.6329 31.5127 36.2711 31.7712 36.0988C32.0296 35.9179 32.3915 35.9868 32.5638 36.2452C33.7441 37.9597 35.6568 39.0281 37.7331 39.1314C39.8094 39.2348 41.8168 38.3647 43.1695 36.7794C44.5135 35.1942 45.0476 33.0661 44.6083 31.0329C44.5221 30.6452 44.4101 30.2747 44.255 29.9129C43.1092 30.5332 41.8341 30.8519 40.5331 30.8519C40.3005 30.8519 40.0679 30.8433 39.8353 30.8175C39.6113 30.8003 39.3787 30.7658 39.146 30.7227C38.8359 30.671 38.6291 30.3695 38.6808 30.0593C38.7325 29.7492 39.034 29.5424 39.3442 29.5941C39.5337 29.6285 39.7319 29.6544 39.93 29.6716C40.1282 29.6889 40.3264 29.6975 40.5245 29.6975C42.3079 29.7147 44.0224 29.0169 45.2889 27.759C46.5554 26.5011 47.2704 24.7953 47.2704 23.0119C47.2704 21.2284 46.5554 19.5226 45.2889 18.2647C44.0224 17.0069 42.3079 16.309 40.5245 16.3262C40.3264 16.3262 40.1282 16.3348 39.93 16.3521C39.7319 16.3693 39.5423 16.3952 39.3442 16.4296C39.034 16.4813 38.7411 16.2745 38.6894 15.9644C38.6377 15.6542 38.8445 15.3613 39.1546 15.301C39.3787 15.2579 39.6113 15.2321 39.8439 15.2062C40.0765 15.1804 40.3091 15.1718 40.5417 15.1718C41.8341 15.1718 43.1092 15.4905 44.2464 16.1022C44.4101 15.7231 44.5307 15.3268 44.6169 14.9219C45.039 12.949 44.5479 10.8899 43.2815 9.32183C42.015 7.75381 40.1024 6.84057 38.0863 6.84057C35.8808 6.84057 33.8217 7.92613 32.5724 9.73538C32.3915 9.99384 32.0382 10.0628 31.7798 9.88184C31.5213 9.70092 31.4524 9.34768 31.6333 9.08922C32.9343 7.18519 35.0106 5.96179 37.3109 5.72917C36.8285 3.83377 35.5448 2.24852 33.7958 1.38697C32.0469 0.525418 30.005 0.46511 28.213 1.22327C26.4037 2.00728 25.0339 3.52361 24.448 5.37594Z" fill="#FD350A"/>
</g>
<defs>
<clipPath id="clip0_1_452">
<rect width="47.9883" height="46.4375" fill="white" transform="translate(0.00585938)"/>
</clipPath>
</defs>
</svg>
