<svg width="43" height="43" viewBox="0 0 43 43" fill="none" xmlns="http://www.w3.org/2000/svg">
<g clip-path="url(#clip0_1_459)">
<path d="M37.765 14.3623H28.5516V5.14895C28.5516 2.50963 26.4143 0.380371 23.7831 0.380371H19.4598C16.8205 0.380371 14.6912 2.51773 14.6912 5.14895V14.3623H5.4779C2.84668 14.3623 0.70932 16.4996 0.70932 19.1308V23.4541C0.70932 26.0934 2.84668 28.2227 5.4779 28.2227H14.6912V37.436C14.6912 40.0753 16.8286 42.2046 19.4598 42.2046H23.7831C26.4224 42.2046 28.5516 40.0672 28.5516 37.436V28.2227H37.765C40.4043 28.2227 42.5335 26.0853 42.5335 23.4541V19.1308C42.5416 16.4996 40.4043 14.3623 37.765 14.3623Z" fill="#FD350A"/>
</g>
<defs>
<clipPath id="clip0_1_459">
<rect width="42.99" height="42.8281" fill="white" transform="translate(0.00497437)"/>
</clipPath>
</defs>
</svg>
