<svg width="241" height="65" viewBox="0 0 241 65" fill="none" xmlns="http://www.w3.org/2000/svg">
<g clip-path="url(#clip0_1_192)">
<path d="M68.7962 20.4311C68.8418 18.6786 68.9486 17.1442 69.1168 15.8277C69.2468 14.7187 69.4553 13.6203 69.7408 12.5408C70.058 12.4438 70.3879 12.3948 70.7196 12.3954C70.8716 12.4001 71.023 12.4158 71.1727 12.4425L71.848 12.545L72.5234 12.6476C72.6956 12.6779 72.8699 12.695 73.0448 12.6989H73.3483C73.3483 12.8998 73.3483 13.199 73.297 13.5922C73.2457 13.9855 73.2243 14.3958 73.1816 14.819C73.1389 15.2421 73.0961 15.6524 73.0619 16.0329C73.0277 16.4133 73.0106 16.6996 73.0106 16.8877C73.0106 17.0758 73.0106 17.1997 73.0106 17.4263C73.0106 17.6528 72.9892 17.8922 72.9764 18.1486C72.9636 18.4051 72.9764 18.6487 72.9422 18.8752C72.908 19.1018 72.9422 19.2813 72.9422 19.4138C72.8919 20.1859 73.0735 20.9555 73.4637 21.6236C73.8113 22.128 74.4354 22.3802 75.3358 22.3802C75.4132 22.3797 75.4892 22.3594 75.5566 22.3213C75.6239 22.2831 75.6804 22.2283 75.7205 22.1622C75.8187 22.0297 75.8726 21.8697 75.8744 21.7048C75.8487 21.3928 75.8316 21.0722 75.8231 20.7474C75.8145 20.4225 75.8231 20.0763 75.8231 19.7173C75.8231 19.0419 75.863 18.1771 75.9428 17.1228C76.0226 16.0685 76.128 14.9287 76.2591 13.7034L76.6865 9.91208C76.8318 8.60985 76.9743 7.36746 77.1139 6.18491C77.2464 5.00521 77.3661 3.94092 77.4644 2.98348C77.5627 2.02604 77.6311 1.27377 77.6525 0.739482C77.6145 0.612844 77.5476 0.496753 77.4571 0.400336C77.3666 0.30392 77.255 0.229808 77.131 0.183826C76.7754 0.0425462 76.3933 -0.0201513 76.0112 3.19854e-05H75.7077C75.3487 0.0228281 75.1136 0.416062 75.0024 1.17973C74.7773 3.09176 74.5465 4.80147 74.31 6.30887C74.0749 7.80486 73.8099 9.15554 73.5193 10.3694H73.3825C73.2927 10.3694 73.1474 10.3694 72.9551 10.4036C72.7095 10.43 72.4626 10.4414 72.2156 10.4378H71.7882C71.3232 10.4541 70.8583 10.4037 70.4076 10.2882C70.2521 10.2368 70.1195 10.1326 70.0328 9.99359C69.9461 9.85461 69.9109 9.68967 69.9331 9.5274C69.9331 9.23675 69.9588 8.88198 70.0015 8.46738C70.0443 8.05277 70.0913 7.61252 70.1383 7.21929C70.1853 6.82605 70.2281 6.41572 70.2708 6.05668C70.3101 5.78762 70.3329 5.51641 70.3392 5.24457C70.3392 5.00094 70.3392 4.74021 70.305 4.47093C70.2846 4.21516 70.2402 3.96186 70.1725 3.71438C70.1129 3.49703 70.016 3.29167 69.8861 3.10743C69.7648 2.93928 69.5924 2.81484 69.3946 2.75267L68.4115 2.46202C68.2289 2.4693 68.0473 2.49218 67.8687 2.5304C67.7582 2.54535 67.6579 2.60288 67.5892 2.69071C67.5206 2.77855 67.4889 2.88974 67.5011 3.00058V3.41945C67.5011 4.00076 67.4669 4.72311 67.3985 5.55659C67.3301 6.39008 67.2532 7.32187 67.1634 8.28786C67.0736 9.25384 66.9668 10.2284 66.8428 11.2072C66.7189 12.186 66.612 13.0879 66.5223 13.9171C66.4325 14.7463 66.3513 15.4772 66.2872 16.0927C66.2231 16.7082 66.1846 17.1442 66.1846 17.375C66.1776 17.5723 66.1605 17.7692 66.1333 17.9648C66.1028 18.1944 66.0857 18.4257 66.082 18.6573C66.0652 19.0026 66.1312 19.347 66.2744 19.6617C66.3749 19.8831 66.5204 20.0811 66.7018 20.243C66.871 20.3869 67.074 20.4854 67.2916 20.5294C67.4966 20.5747 67.7058 20.5976 67.9157 20.5978C68.2153 20.5814 68.5113 20.5253 68.7962 20.4311Z" fill="white"/>
<path d="M91.3857 18.9822L91.1507 18.3068L90.9455 17.0587C90.7095 16.1116 90.541 15.1489 90.4411 14.1779C90.3528 13.266 90.2288 12.2487 90.0693 11.126C90.006 10.55 89.9046 9.97889 89.7658 9.41632C89.657 8.91503 89.3849 8.46402 88.9921 8.13403C88.7872 7.97883 88.5731 7.8361 88.351 7.70661C88.104 7.56125 87.8452 7.43686 87.5774 7.33474C87.3081 7.23644 87.0431 7.15095 86.7823 7.08256C86.5582 7.02015 86.3269 6.9871 86.0942 6.98425C85.0893 7.01671 84.1324 7.42201 83.4099 8.12121C82.5396 8.88577 81.7902 9.77783 81.1873 10.767C80.5626 11.7676 80.0536 12.8359 79.6699 13.9513C79.3371 14.8217 79.1438 15.7391 79.0972 16.6698C79.0999 17.0382 79.1343 17.4057 79.1998 17.7683C79.2579 18.1407 79.3824 18.4998 79.5674 18.8283C79.762 19.1645 80.0422 19.4432 80.3795 19.6361C80.7842 19.8644 81.2445 19.9754 81.7088 19.9567C82.4417 19.9333 83.1487 19.6807 83.7305 19.2343C84.4208 18.7479 85.0445 18.1731 85.5855 17.5246C86.1312 16.89 86.6017 16.1943 86.9875 15.4516C87.3004 14.8993 87.5226 14.3005 87.6457 13.6778C87.7612 14.3531 87.8766 15.1139 88.0005 15.956C88.1245 16.798 88.2741 17.5973 88.4579 18.3496C88.6018 19.0083 88.8393 19.643 89.1631 20.2345C89.2599 20.4526 89.4156 20.6393 89.6126 20.7737C89.8097 20.9081 90.0404 20.9848 90.2787 20.9953C90.4226 20.9931 90.5658 20.9759 90.7061 20.944C90.8631 20.9091 91.0162 20.859 91.1635 20.7944C91.3042 20.7307 91.4296 20.6374 91.5311 20.5209C91.635 20.4033 91.69 20.2503 91.6849 20.0935C91.6833 19.9037 91.6486 19.7157 91.5824 19.5378C91.5182 19.3455 91.4541 19.1617 91.3857 18.9822ZM86.8507 10.0788C86.7636 10.3267 86.6623 10.5693 86.5473 10.8055C86.4233 11.0619 86.2993 11.3184 86.1754 11.562C86.0514 11.8056 85.9446 12.0365 85.8548 12.2373C85.6609 12.7696 85.4192 13.2832 85.1325 13.7718C84.8106 14.3314 84.4552 14.8709 84.0682 15.3875C83.7305 15.8673 83.3546 16.319 82.944 16.7382C82.6832 17.0442 82.3259 17.2522 81.931 17.328C81.936 17.3113 81.936 17.2934 81.931 17.2767C81.931 17.2767 81.931 17.2511 81.931 17.2254V17.0587C81.935 16.4158 82.0433 15.7778 82.2516 15.1695C82.4539 14.5377 82.7188 13.9278 83.0423 13.3487C83.1685 13.0805 83.2784 12.805 83.3715 12.5237C83.5682 12.0535 83.7982 11.5978 84.0596 11.1602C84.3369 10.693 84.6714 10.2622 85.0555 9.87794C85.2234 9.69888 85.4259 9.55578 85.6507 9.45733C85.8755 9.35887 86.118 9.30711 86.3635 9.30519C86.4687 9.3029 86.5729 9.32638 86.6669 9.37357C86.7567 9.41632 86.855 9.46333 86.9704 9.50608C86.9615 9.70218 86.9211 9.89557 86.8507 10.0788Z" fill="white"/>
<path d="M106.927 20.0592C107.118 20.0339 107.305 19.9836 107.483 19.9096C107.78 19.7293 108.029 19.4801 108.209 19.183C108.358 18.9146 108.439 18.6137 108.444 18.3068C108.446 18.0898 108.381 17.8776 108.256 17.6998C108.129 17.5152 107.97 17.3546 107.786 17.2254C107.594 17.0913 107.391 16.974 107.179 16.8749C106.965 16.7723 106.769 16.6868 106.589 16.6184C106.341 16.5073 106.038 16.3491 105.679 16.1483C105.32 15.9474 104.944 15.7208 104.551 15.4729C104.157 15.225 103.768 14.9686 103.388 14.6993C103.008 14.43 102.678 14.1821 102.409 13.9556C103.02 13.6164 103.606 13.2336 104.162 12.81C104.726 12.3826 105.234 11.9552 105.696 11.562C106.158 11.1687 106.551 10.7883 106.876 10.4506C107.201 10.113 107.431 9.86506 107.568 9.70692C107.647 9.55955 107.703 9.40101 107.735 9.23675C107.757 9.10392 107.768 8.96958 107.769 8.83496C107.769 8.71021 107.758 8.58569 107.735 8.4631C107.711 8.32908 107.7 8.19316 107.701 8.05705C107.605 7.8598 107.458 7.69252 107.274 7.57343C107.09 7.45435 106.877 7.38803 106.658 7.38171C106.463 7.37415 106.269 7.40838 106.088 7.48211C105.907 7.55583 105.745 7.66733 105.611 7.80914C105.341 8.09979 105.051 8.43746 104.734 8.82214L102.242 11.2457C102.285 10.7969 102.324 10.2925 102.358 9.72829C102.392 9.16408 102.409 8.73238 102.409 8.41608C102.418 8.12951 102.447 7.84389 102.495 7.56123C102.541 7.28701 102.568 7.00995 102.576 6.73202C102.587 6.37553 102.506 6.02215 102.341 5.70619C102.255 5.56021 102.128 5.44222 101.976 5.3664C101.825 5.29057 101.654 5.26014 101.486 5.27876C101.439 5.27876 101.379 5.27876 101.302 5.27876L101.016 5.33006L100.161 5.46683C99.8702 5.50957 99.712 5.62071 99.6907 5.80023V6.41145C99.6907 7.0184 99.6565 7.77067 99.5881 8.66827L99.2846 11.6603C99.1735 11.5235 99.0282 11.3568 98.8572 11.1559L98.3315 10.5361C98.1391 10.3224 97.9596 10.1087 97.7886 9.94628C97.6701 9.81267 97.5415 9.68835 97.4039 9.57441C97.0876 9.14699 96.8013 8.68536 96.5491 8.25794C96.2193 7.75202 95.8289 7.28837 95.3865 6.87734C95.2553 6.83425 95.1184 6.8112 94.9804 6.80896C94.7853 6.80905 94.5957 6.87365 94.441 6.9927C94.2864 7.11175 94.1755 7.27857 94.1256 7.46719C93.9527 7.92453 93.8672 8.41022 93.8734 8.89908C93.8571 9.41677 94.0236 9.92368 94.3435 10.331C94.6498 10.7145 94.9766 11.0812 95.3224 11.4295C95.44 11.6171 95.584 11.787 95.7498 11.9338C96.0191 12.2031 96.3225 12.498 96.6602 12.7887C96.9979 13.0793 97.3355 13.4042 97.6732 13.682C97.9183 13.8949 98.1767 14.0919 98.4469 14.2718C98.2046 14.5183 97.9462 14.7482 97.6732 14.96C97.4381 15.1395 97.1945 15.3148 96.9466 15.4815C96.6987 15.6482 96.4251 15.832 96.1217 16.02C95.8182 16.2081 95.4506 16.4475 95.0274 16.7808C94.6043 17.1142 94.1042 17.4733 93.6768 17.8409C93.4805 17.9976 93.3172 18.1916 93.1962 18.4116C93.0752 18.6317 92.9988 18.8735 92.9715 19.1232C92.962 19.2147 92.9754 19.3071 93.0105 19.3921C93.0456 19.4772 93.1012 19.5522 93.1724 19.6104C93.2969 19.704 93.4102 19.8115 93.5101 19.931C93.6588 19.999 93.8018 20.079 93.9375 20.1704C94.0865 20.2659 94.2457 20.3447 94.4119 20.4054C94.7882 20.3604 95.15 20.2335 95.472 20.0336C95.9136 19.7621 96.2878 19.3938 96.5662 18.9565C96.888 18.5434 97.2566 18.169 97.6647 17.8409C98.0697 17.5132 98.4577 17.1651 98.8273 16.7979L98.0194 20.6747C98.0202 20.7658 98.0418 20.8555 98.0826 20.937C98.1233 21.0185 98.1821 21.0896 98.2545 21.1449C98.5486 21.3859 98.9172 21.5173 99.2974 21.5167C99.6552 21.5081 100.009 21.4402 100.345 21.3159L100.682 21.2133C100.736 21.1451 100.769 21.0639 100.781 20.9782L101.691 16.4261C101.935 16.5805 102.161 16.7611 102.366 16.9646C102.558 17.1607 102.773 17.3317 103.008 17.4733C103.668 17.861 104.289 18.3119 104.863 18.8197C105.421 19.3279 106.049 19.7552 106.726 20.0891C106.758 20.0973 106.792 20.0973 106.824 20.0891C106.855 20.0705 106.891 20.0602 106.927 20.0592Z" fill="white"/>
<path d="M129.363 19.3027C129.195 19.1695 129.05 19.0091 128.935 18.8282C128.742 18.4458 128.634 18.0257 128.619 17.5972C128.572 17.2168 128.533 16.8279 128.499 16.4346C128.465 16.0414 128.414 15.6525 128.345 15.272C128.326 15.1104 128.316 14.9476 128.316 14.7848V14.2932C128.358 13.1264 128.388 12.2886 128.397 11.7842C128.405 11.2799 128.397 10.9294 128.397 10.7541V10.519C128.39 10.1785 128.424 9.8383 128.499 9.50604C128.574 9.17519 128.609 8.83647 128.602 8.49731V8.22803C128.601 8.13583 128.59 8.04404 128.568 7.95448C128.542 7.71084 128.354 7.50568 127.995 7.34753C127.719 7.214 127.42 7.13421 127.114 7.11244C126.826 7.10618 126.541 7.17701 126.29 7.31761C126.06 7.44513 125.868 7.6309 125.734 7.85617C125.647 8.02466 125.591 8.2069 125.567 8.39473C125.462 8.75286 125.304 9.09299 125.097 9.40346C124.882 9.72225 124.696 10.0599 124.541 10.4122C124.337 10.8643 124.106 11.3039 123.849 11.7287C123.402 12.4695 123.037 13.0936 122.755 13.6008C122.473 14.1052 122.208 14.5753 121.964 15.0156C121.72 15.4558 121.451 15.9046 121.169 16.362C120.887 16.8193 120.523 17.3707 120.075 17.999C120.036 17.8894 120.007 17.7764 119.989 17.6614C119.989 17.5716 119.964 17.4348 119.938 17.2553C119.819 16.4519 119.741 15.6431 119.703 14.8318C119.66 13.9342 119.634 13.0366 119.634 12.1347C119.634 11.438 119.634 10.8738 119.634 10.425C119.645 10.0106 119.696 9.59819 119.788 9.19402C119.759 8.89856 119.707 8.60569 119.634 8.31779C119.558 7.98012 119.395 7.79205 119.147 7.74504C118.883 7.6665 118.625 7.57084 118.374 7.45866C118.173 7.36338 117.954 7.31236 117.732 7.30906C117.533 7.33206 117.34 7.38841 117.16 7.47576C117.005 7.55182 116.861 7.64813 116.732 7.76213C116.657 7.83819 116.6 7.93024 116.566 8.03141C116.528 8.14059 116.505 8.25407 116.497 8.36908C116.471 8.53829 116.419 8.70255 116.343 8.85635C116.125 9.38613 115.933 9.92683 115.77 10.4763C115.611 11.0251 115.396 11.5564 115.129 12.0621L114.356 13.5452C114.039 14.1052 113.77 14.6352 113.548 15.1267C113.308 15.6483 113.037 16.1551 112.736 16.6441L112.569 16.9476C112.354 17.4527 112.085 17.9329 111.765 18.3794C111.701 18.4689 111.618 18.5437 111.522 18.599C111.426 18.6542 111.32 18.6886 111.21 18.7C111.072 18.6947 110.936 18.6717 110.804 18.6316C110.606 18.5805 110.401 18.5574 110.197 18.5632C110.119 18.5675 110.04 18.5675 109.962 18.5632C109.873 18.5465 109.781 18.5465 109.692 18.5632L109.321 18.6658L108.949 18.9351L108.846 19.3625V19.6617C108.835 19.9406 108.887 20.2185 109 20.4738C109.086 20.6572 109.213 20.8182 109.372 20.944C109.514 21.0535 109.672 21.1388 109.842 21.1962C110.013 21.2518 110.15 21.2902 110.27 21.3159L111.415 21.2475C111.901 21.1712 112.363 20.9808 112.761 20.6918C113.151 20.3989 113.496 20.0521 113.787 19.6617C114.106 19.2414 114.392 18.797 114.642 18.3324C114.911 17.8366 115.193 17.3322 115.497 16.8151C115.676 16.4304 115.869 15.9602 116.07 15.4473C116.271 14.9344 116.497 14.4001 116.711 13.8829V14.789C116.711 15.2165 116.711 15.4644 116.711 15.6012C116.711 15.7379 116.711 15.8234 116.711 15.8704L116.779 16.8492L116.882 17.6229C116.925 18.0076 116.989 18.4136 117.066 18.8539C117.143 19.2865 117.28 19.7065 117.472 20.102C117.657 20.4893 117.907 20.8421 118.211 21.1449C118.542 21.463 118.958 21.6796 119.408 21.7689H119.711C120.19 21.7415 120.643 21.541 120.985 21.2047C121.301 20.9127 121.594 20.5969 121.861 20.2601C122.106 19.949 122.331 19.6236 122.537 19.2856C122.739 18.9493 122.936 18.6117 123.127 18.2726C123.315 17.9349 123.524 17.5887 123.751 17.2254C124.081 16.7222 124.347 16.1794 124.541 15.6097C124.731 15.05 125.049 14.5422 125.469 14.1265V14.259C125.512 14.6437 125.542 15.0241 125.554 15.4045C125.567 15.785 125.593 16.1696 125.636 16.5543L125.841 18.1016C125.842 18.2263 125.853 18.3507 125.875 18.4735C125.896 18.6316 125.918 18.7855 125.939 18.9308C125.96 19.0761 125.986 19.2129 126.007 19.3326C126.016 19.4263 126.052 19.5154 126.11 19.5891C126.147 19.7137 126.204 19.8319 126.277 19.9396C126.366 20.0892 126.469 20.2388 126.58 20.3969C126.673 20.5313 126.775 20.6598 126.884 20.7816C126.973 20.8842 127.02 20.9226 127.02 20.9013C127.269 21.0883 127.539 21.246 127.824 21.3714C128.092 21.4965 128.383 21.5607 128.679 21.5595H129.016C129.183 21.5379 129.34 21.4731 129.474 21.3714C129.584 21.3054 129.689 21.2326 129.79 21.1534L130.064 20.4482C130.059 20.1557 129.963 19.8719 129.79 19.6361C129.658 19.5118 129.515 19.4002 129.363 19.3027Z" fill="white"/>
<path d="M144.066 19.2342C144.213 19.2124 144.357 19.1722 144.494 19.1146C144.633 19.0562 144.755 18.9636 144.848 18.8453C144.963 18.6922 145.038 18.513 145.066 18.3238C144.988 18.1376 144.886 17.9623 144.763 17.8024C144.652 17.6528 144.528 17.5032 144.395 17.345C144.02 16.7813 143.772 16.1424 143.669 15.4729C143.512 14.5553 143.439 13.6254 143.451 12.6946C143.451 12.1518 143.489 11.5063 143.566 10.7541C143.659 9.7181 143.698 8.67812 143.686 7.63812C143.543 7.42436 143.36 7.24008 143.147 7.09529C142.966 6.94222 142.742 6.84825 142.506 6.82601C142.484 6.8318 142.46 6.8318 142.438 6.82601C142.415 6.82163 142.392 6.82163 142.369 6.82601C141.956 6.79414 141.542 6.87696 141.173 7.06537C140.954 7.19901 140.792 7.40923 140.719 7.65522C140.648 7.91237 140.619 8.17948 140.634 8.44596C140.647 8.74251 140.607 9.03899 140.519 9.32219C140.293 10.0175 140.001 10.8153 139.642 11.7158C139.292 12.5902 138.896 13.4462 138.458 14.2803C138.089 15.0054 137.66 15.6987 137.176 16.3534C136.749 16.9304 136.321 17.2382 135.979 17.2809C135.932 16.8107 135.877 16.1183 135.808 15.2079C135.74 14.2974 135.71 13.3058 135.71 12.2159C135.711 11.878 135.738 11.5408 135.791 11.2071C135.856 10.7041 135.885 10.197 135.877 9.68977C135.872 9.35492 135.906 9.02063 135.979 8.69387C136.05 8.37828 136.083 8.05548 136.078 7.73215C136.085 7.53607 136.039 7.34165 135.944 7.1699C135.849 6.99815 135.709 6.85559 135.539 6.75762C135.214 6.54523 134.846 6.40663 134.462 6.35156C134.347 6.37293 134.252 6.39858 134.176 6.41995L133.958 6.48407C133.835 6.52453 133.716 6.57603 133.603 6.63794C133.529 6.67148 133.464 6.72288 133.415 6.78754C133.237 7.32366 133.124 7.87891 133.077 8.44169C133.034 9.00162 133.013 9.58719 133.013 10.1941V12.3313C133.011 12.6473 132.989 12.9629 132.945 13.2759C132.945 14.6223 132.983 15.7593 133.064 16.6953C133.108 17.4644 133.252 18.2245 133.492 18.9564C133.647 19.4719 133.967 19.9223 134.402 20.2387C134.877 20.5166 135.422 20.6503 135.971 20.6234C136.601 20.6177 137.208 20.3855 137.68 19.9694C138.218 19.5212 138.688 18.9988 139.078 18.4179C139.477 17.832 139.833 17.2177 140.142 16.5799C140.446 15.9516 140.685 15.443 140.865 15.0625L141.002 14.7933C141.07 15.3318 141.147 15.8533 141.237 16.3619C141.319 16.8386 141.463 17.3027 141.664 17.7425C141.84 18.14 142.091 18.4998 142.404 18.8025C142.738 19.1121 143.153 19.3223 143.6 19.4095C143.752 19.3408 143.907 19.2823 144.066 19.2342Z" fill="white"/>
<path d="M157.902 19.012C158.013 18.6786 158.112 18.341 158.206 18.0033C158.3 17.6656 158.389 17.3237 158.492 16.9732C158.604 16.5974 158.747 16.2314 158.919 15.879C159.077 15.5199 159.27 15.1224 159.492 14.6822L160.185 13.3315C160.42 12.8742 160.655 12.4211 160.894 11.9851L161.548 10.7541C161.659 11.1162 161.733 11.4885 161.77 11.8654C161.8 12.2287 161.834 12.5878 161.869 12.9468C161.903 13.3059 161.941 13.6692 161.988 14.041C162.032 14.4156 162.122 14.7832 162.258 15.1352C162.35 15.5167 162.405 15.9059 162.424 16.2979C162.474 16.8655 162.559 17.4295 162.681 17.9862C162.787 18.5201 162.98 19.0328 163.253 19.5036C163.357 19.7041 163.514 19.8719 163.707 19.9882C163.9 20.1045 164.122 20.1646 164.348 20.1618C164.754 20.1642 165.145 20.0113 165.442 19.7344C165.6 19.5831 165.722 19.3991 165.801 19.1953C165.88 18.9914 165.914 18.7728 165.899 18.5547C165.896 18.0655 165.786 17.5828 165.579 17.1399C165.376 16.702 165.245 16.2345 165.19 15.755C165.079 14.8574 164.942 14.0111 164.788 13.2118C164.624 12.3669 164.544 11.5079 164.549 10.6473V10.1814C164.564 9.69477 164.519 9.20818 164.416 8.73238C164.355 8.45258 164.227 8.19161 164.044 7.97156C163.886 7.80451 163.689 7.67838 163.471 7.60397C163.218 7.5111 162.969 7.40407 162.728 7.2834C162.156 7.31404 161.603 7.50026 161.129 7.82196C160.67 8.13529 160.261 8.51566 159.915 8.95037C159.565 9.38996 159.26 9.86398 159.005 10.3652C158.744 10.8738 158.513 11.3397 158.312 11.7671C158.244 11.8996 158.154 12.0877 158.043 12.3228C157.932 12.5579 157.817 12.8186 157.705 13.0964L157.385 13.9085C157.287 14.165 157.21 14.3744 157.167 14.5283C157.007 13.8786 156.845 13.1491 156.68 12.3399C156.509 11.5278 156.325 10.8011 156.12 10.1472C156.026 9.76397 155.953 9.37584 155.902 8.98456C155.854 8.59789 155.758 8.21876 155.615 7.85615C155.491 7.52335 155.281 7.22874 155.008 7.00129C154.68 6.75471 154.273 6.63483 153.863 6.66363C153.633 6.66656 153.406 6.7175 153.197 6.81319C152.988 6.90888 152.801 7.0472 152.649 7.21928C152.29 7.59114 151.974 7.94164 151.704 8.2793C151.484 8.55819 151.281 8.85086 151.097 9.15553C150.895 9.49177 150.698 9.84654 150.508 10.2198C150.315 10.5917 150.136 10.955 149.969 11.314C149.802 11.6731 149.648 12.0022 149.516 12.2929C149.476 12.116 149.453 11.9356 149.448 11.7543C149.449 11.4615 149.466 11.169 149.499 10.8781C149.529 10.5618 149.546 10.2797 149.546 10.0232C149.546 9.76675 149.546 9.44618 149.516 9.09569C149.495 8.76422 149.431 8.43678 149.328 8.12116C149.233 7.83024 149.065 7.56838 148.841 7.36033C148.575 7.14488 148.238 7.03664 147.896 7.05686C147.573 7.06099 147.262 7.1808 147.02 7.39453C146.895 7.48988 146.793 7.61265 146.722 7.75343C146.652 7.89421 146.615 8.04925 146.614 8.20664C146.612 8.44691 146.653 8.68561 146.733 8.9119C146.811 9.14041 146.85 9.38017 146.849 9.62143C146.849 9.80095 146.849 9.89498 146.883 9.9078C146.917 9.92063 146.93 10.0232 146.951 10.2284C146.973 10.4335 146.998 10.8054 147.02 11.3568C147.041 11.9082 147.058 12.8229 147.058 14.1051C147.058 14.1735 147.058 14.3402 147.024 14.6095C146.99 14.8788 146.977 15.1652 146.956 15.4644C146.934 15.7636 146.909 16.0542 146.887 16.3192C146.866 16.5842 146.853 16.7466 146.853 16.8279C146.853 17.0758 146.853 17.3109 146.853 17.5331C146.84 17.7599 146.811 17.9855 146.768 18.2085C146.771 18.4033 146.804 18.5965 146.866 18.7812C146.933 18.982 147.023 19.1743 147.135 19.354C147.248 19.5314 147.393 19.6865 147.563 19.8113C147.711 19.9286 147.895 19.9933 148.084 19.9951C148.316 20.0147 148.549 19.987 148.769 19.9135C148.99 19.84 149.193 19.7223 149.366 19.5677C149.639 19.257 149.835 18.8866 149.939 18.4863C150.063 18.0589 150.174 17.5673 150.277 17.0373C150.388 16.4862 150.587 15.9566 150.867 15.4686C150.978 15.1994 151.102 14.836 151.238 14.3744C151.375 13.9128 151.533 13.4426 151.726 12.9596C151.918 12.4766 152.132 12.0107 152.367 11.5577C152.566 11.1563 152.847 10.801 153.192 10.5148C153.398 10.8408 153.563 11.1911 153.683 11.5577C153.829 11.9851 153.961 12.4425 154.085 12.9254C154.209 13.4084 154.312 13.8957 154.389 14.3915C154.466 14.8873 154.53 15.3447 154.577 15.7721C154.624 16.1995 154.705 16.627 154.76 17.157C154.813 17.6574 154.903 18.1531 155.03 18.6402C155.132 19.0641 155.315 19.4646 155.568 19.8199C155.684 19.973 155.835 20.0959 156.008 20.1778C156.182 20.2597 156.373 20.2982 156.564 20.29C156.868 20.2921 157.168 20.2233 157.44 20.0891C157.621 19.7422 157.775 19.3821 157.902 19.012Z" fill="white"/>
<path d="M150.05 5.02236C150.169 5.019 150.288 5.00758 150.405 4.98817C150.587 4.9635 150.767 4.92492 150.944 4.87276C151.126 4.81916 151.306 4.75639 151.482 4.6847C151.613 4.64644 151.727 4.56321 151.803 4.44961L152.072 4.31711C152.925 3.88628 153.824 3.55223 154.752 3.3212C155.631 3.07874 156.537 2.94806 157.449 2.93224C157.963 2.93857 158.476 2.98429 158.983 3.06902C159.553 3.15735 160.123 3.26421 160.693 3.38959C161.266 3.51354 161.8 3.64605 162.296 3.79137C162.792 3.9367 163.185 4.0692 163.476 4.18033C163.71 4.16235 163.936 4.08752 164.134 3.96234C164.197 3.90916 164.249 3.84397 164.286 3.77058C164.323 3.69719 164.346 3.61707 164.352 3.53491C164.327 3.2311 164.228 2.93787 164.066 2.68006C163.959 2.47553 163.801 2.30186 163.608 2.17569L163.206 1.94061C162.44 1.55033 161.631 1.25054 160.796 1.04728C159.878 0.795668 158.931 0.664912 157.979 0.658325C155.463 0.658325 153.502 0.921906 152.098 1.44907C150.693 1.97623 149.761 2.71853 149.302 3.67597C149.271 3.73814 149.26 3.80799 149.268 3.87686C149.275 4.14648 149.358 4.40861 149.507 4.6334C149.554 4.74157 149.629 4.83499 149.725 4.90355C149.82 4.97211 149.933 5.01319 150.05 5.02236Z" fill="white"/>
<path d="M177.354 16.9561C177.259 16.8197 177.131 16.7094 176.982 16.6356L176.611 16.486L175.076 17.5246C174.56 17.857 173.954 18.0227 173.341 17.9991C173.158 17.9826 172.978 17.9483 172.802 17.8965C172.488 17.808 172.197 17.6536 171.947 17.4434C171.61 17.1458 171.335 16.784 171.14 16.3791C170.861 15.7662 170.724 15.0987 170.738 14.4258V14.2377C170.739 14.1415 170.749 14.0457 170.768 13.9513C171.063 14.0411 171.319 14.1095 171.546 14.1565C171.801 14.2013 172.061 14.2128 172.319 14.1907C172.94 14.1779 173.552 14.0459 174.123 13.8017C174.613 13.5927 175.056 13.288 175.427 12.9057C175.797 12.5233 176.088 12.0709 176.281 11.5748C176.472 11.0976 176.569 10.5883 176.568 10.0745C176.569 9.67677 176.495 9.28237 176.35 8.91194C176.203 8.54102 175.98 8.20478 175.696 7.92458C175.383 7.61663 175.011 7.37527 174.602 7.21505C174.112 7.02678 173.591 6.93532 173.067 6.94577C172.29 6.92745 171.526 7.14502 170.875 7.56981C170.235 7.99502 169.693 8.55162 169.284 9.20259C168.844 9.90519 168.521 10.6746 168.327 11.4808C168.116 12.3005 168.009 13.1434 168.006 13.9898C168.028 14.5283 168.066 15.0413 168.122 15.5242C168.178 16.0021 168.291 16.4714 168.46 16.9219C168.633 17.3811 168.872 17.813 169.169 18.2042C169.536 18.6681 169.968 19.0769 170.451 19.4181C170.878 19.6257 171.323 19.7945 171.781 19.9225C172.212 20.0647 172.661 20.1453 173.114 20.1618C173.778 20.18 174.441 20.1051 175.085 19.9396C175.69 19.7362 176.248 19.4102 176.722 18.9821C176.907 18.8167 177.071 18.6286 177.209 18.4222C177.363 18.1865 177.451 17.9131 177.461 17.6315C177.464 17.5123 177.453 17.3931 177.427 17.2767C177.397 17.1713 177.373 17.0642 177.354 16.9561ZM171.148 10.9721C171.218 10.7129 171.31 10.4598 171.422 10.2156C171.504 10.0422 171.612 9.88222 171.742 9.74115C171.849 9.63543 171.95 9.52415 172.046 9.40776C172.097 9.31948 172.168 9.24355 172.252 9.18524C172.336 9.12692 172.432 9.08763 172.533 9.07009C172.749 9.02366 172.97 9.00074 173.191 9.0017C173.342 9.0011 173.49 9.04032 173.621 9.11538C173.751 9.19043 173.86 9.29867 173.935 9.42913C174.107 9.68127 174.201 9.9787 174.204 10.284C174.206 10.5455 174.151 10.8043 174.043 11.0426C173.936 11.2809 173.778 11.4931 173.58 11.6646C173.085 12.0736 172.452 12.2784 171.811 12.2373C171.699 12.2373 171.546 12.2373 171.353 12.2373C171.209 12.2357 171.066 12.2185 170.926 12.186C170.96 11.7751 171.034 11.3685 171.148 10.9721Z" fill="white"/>
<path d="M29.4728 43.5335C29.4728 43.1061 29.5156 42.7556 29.5412 42.4863C29.5669 42.2171 29.584 41.982 29.6053 41.7811C29.6267 41.5802 29.6438 41.3537 29.6566 41.1741C29.6694 40.9946 29.6566 40.7467 29.6566 40.4646C29.6566 40.0842 29.6352 39.4687 29.5882 38.6267C29.5395 37.7321 29.3963 36.8453 29.1608 35.9809C29.1643 35.9582 29.1643 35.9352 29.1608 35.9125C29.1544 35.8901 29.1544 35.8665 29.1608 35.8441C29.1442 35.5712 29.0836 35.3027 28.9813 35.0491C28.8912 34.7693 28.7841 34.4952 28.6607 34.2284C28.5618 34.0054 28.4446 33.7909 28.3102 33.5873C28.1863 33.4078 28.1136 33.318 28.088 33.318V33.1171C27.6015 32.6024 27.0014 32.2086 26.3355 31.9673C25.7162 31.7638 25.0682 31.6614 24.4164 31.6639C23.995 31.6703 23.5759 31.7277 23.1683 31.8348C22.7079 31.9492 22.2577 32.1007 21.8219 32.2879C21.3949 32.4747 20.9833 32.6948 20.5909 32.9461C20.2638 33.1619 19.9601 33.4111 19.6847 33.6899C19.6591 33.7326 19.5992 33.8224 19.4967 33.9591C19.3941 34.0959 19.2829 34.2455 19.159 34.4122C19.035 34.5789 18.9282 34.7413 18.8384 34.8867C18.783 34.9643 18.7384 35.0491 18.7059 35.1388C18.7074 35.3965 18.7704 35.65 18.8897 35.8783C18.9494 35.9992 19.0441 36.0994 19.1615 36.1657C19.2789 36.2321 19.4136 36.2615 19.548 36.2502C19.7208 36.2512 19.892 36.2173 20.0514 36.1504C20.2108 36.0836 20.3551 35.9852 20.4755 35.8612C20.7319 35.6047 21.0525 35.3198 21.4372 35.0063C21.6808 34.8055 21.886 34.6473 22.0441 34.5362C22.2023 34.425 22.3348 34.3353 22.4459 34.2669C22.5567 34.1999 22.676 34.1481 22.8007 34.113L23.258 33.9976C23.57 33.9292 23.8222 33.8822 24.0146 33.8608C24.1663 33.8416 24.319 33.8301 24.4719 33.8266C24.6559 33.8208 24.839 33.8561 25.0076 33.93C25.1762 34.004 25.3261 34.1147 25.4465 34.2541C25.7195 34.5812 25.9257 34.9588 26.0534 35.3654C26.2235 35.8762 26.3479 36.4012 26.4253 36.934C26.515 37.5196 26.592 38.1009 26.6604 38.6865V39.6226C26.6604 39.8918 26.6604 40.1739 26.6604 40.4774C26.6604 40.7809 26.6262 41.0331 26.5962 41.2682C26.5701 41.4617 26.5301 41.6531 26.4766 41.8409C26.4295 41.9905 26.374 42.0632 26.3056 42.0632H26.1047C25.9252 42.0632 25.7756 42.0632 25.6516 42.0632C25.5221 42.0566 25.3922 42.0566 25.2627 42.0632C24.4881 42.045 23.7217 42.2245 23.0358 42.5846C22.4189 42.925 21.8664 43.3705 21.403 43.9011C20.9453 44.4223 20.5652 45.0067 20.2746 45.6365C20.0018 46.2111 19.7648 46.8021 19.565 47.406C19.4084 47.8684 19.2842 48.3412 19.1932 48.8208C19.1248 49.2141 19.0949 49.4363 19.0949 49.4791V49.7483C19.0949 50.0646 19.0949 50.4108 19.1419 50.7955C19.1725 51.1622 19.2471 51.5238 19.3642 51.8727C19.6132 52.714 20.1127 53.4595 20.796 54.0098C21.2784 54.372 21.8602 54.5779 22.463 54.5996C23.1991 54.609 23.9212 54.3976 24.536 53.9927C25.1141 53.6042 25.6386 53.1415 26.0961 52.6164C26.4857 52.2029 26.8257 51.7453 27.1091 51.2529C27.2501 51.0118 27.3785 50.7635 27.4938 50.5092C28.0419 49.4125 28.4883 48.2679 28.8274 47.0897C29.1629 45.9294 29.3791 44.7378 29.4728 43.5335ZM25.9807 45.692C25.9953 45.9694 25.944 46.2462 25.8311 46.4999L25.5619 47.4445C25.4251 47.936 25.284 48.4276 25.1344 48.9106C24.988 49.3961 24.7903 49.8646 24.5446 50.3083C24.46 50.5143 24.3463 50.7072 24.2069 50.881C24.0189 51.1403 23.8162 51.3886 23.6 51.6247C23.3937 51.856 23.1693 52.0704 22.9289 52.2659C22.7894 52.4035 22.6125 52.4972 22.4203 52.5352C22.3775 52.5352 22.322 52.4839 22.2536 52.3813C22.1852 52.283 22.1125 52.1676 22.0356 52.0436C21.9586 51.9197 21.886 51.8085 21.8304 51.706C21.7976 51.6413 21.7589 51.5798 21.715 51.5222C21.6502 51.0977 21.6159 50.6692 21.6124 50.2399C21.6099 49.747 21.6615 49.2554 21.7663 48.7738C21.8863 48.2438 22.0376 47.7215 22.2194 47.2094C22.3989 46.9359 22.5656 46.6623 22.7237 46.3802C22.8899 46.0833 23.0755 45.7977 23.2794 45.5253C23.4996 45.2366 23.7552 44.9767 24.0402 44.7517C24.3627 44.4947 24.7271 44.2952 25.1173 44.1619C25.3507 44.1594 25.5833 44.1867 25.8098 44.2431C26.0235 44.3029 26.1303 44.4867 26.1303 44.7987C26.0213 45.0835 25.9704 45.3873 25.9807 45.692Z" fill="white"/>
<path d="M41.2527 50.8981C41.086 50.4707 40.8894 49.915 40.6629 49.2653C40.4363 48.6157 40.1927 47.7822 39.9234 46.7692V46.4657C39.9225 46.2154 39.8938 45.966 39.8379 45.722C39.7824 45.4783 39.7225 45.2091 39.6542 44.9141L39.4191 43.9011C39.3293 43.5207 39.2481 43.0719 39.1797 42.5547C39.1787 42.3785 39.1427 42.2042 39.0737 42.0421C39.0047 41.8799 38.9042 41.7331 38.7779 41.6101C38.546 41.43 38.2594 41.335 37.9658 41.3408C37.6132 41.3511 37.2679 41.4433 36.9571 41.6101C36.6079 41.7828 36.2889 42.0109 36.0125 42.2854C35.9141 42.5459 35.8467 42.8171 35.8116 43.0933C35.7847 43.333 35.739 43.5703 35.6748 43.8028C35.4298 44.2063 35.2319 44.6365 35.085 45.0851C34.9168 45.5752 34.6746 46.2149 34.3583 47.0043C34.089 47.701 33.8497 48.2865 33.636 48.7909C33.4622 49.2076 33.2652 49.6143 33.0461 50.0091L32.5418 50.9537L32.3708 51.2572C32.2597 51.458 32.1357 51.6846 31.9989 51.9154C31.8668 52.1472 31.7152 52.3674 31.5458 52.5736C31.3842 52.766 31.1973 52.9357 30.9902 53.078C30.8008 53.2064 30.5778 53.2762 30.349 53.2789C30.2126 53.2686 30.0827 53.2164 29.9772 53.1293C29.7854 53.0109 29.5607 52.9569 29.336 52.9754C29.2125 52.97 29.0889 52.9815 28.9685 53.0096L28.7975 53.0438L28.4598 53.3815L28.3615 53.8089V54.1124C28.3615 54.7663 28.4726 55.1852 28.6949 55.3947C28.896 55.5734 29.1408 55.6958 29.4044 55.7494L30.5499 55.681C31.1742 55.6086 31.7766 55.4077 32.3195 55.0912C32.8168 54.796 33.2664 54.427 33.6531 53.997C34.0421 53.5614 34.3858 53.0873 34.6789 52.5822C34.9824 52.065 35.2816 51.5478 35.5722 51.0306C35.8776 50.4308 36.1101 49.7965 36.2647 49.1414C36.4539 48.3658 36.685 47.601 36.9571 46.8504C37.1366 47.5471 37.2777 48.1327 37.3845 48.6028C37.4914 49.073 37.594 49.5175 37.7051 49.9321C37.8162 50.3467 37.953 50.787 38.1325 51.2144C38.312 51.6418 38.5044 52.189 38.7737 52.8173C38.7784 53.0235 38.8129 53.2279 38.8762 53.4242C38.9468 53.6591 39.0428 53.8856 39.1626 54.0996C39.2742 54.3066 39.4185 54.4943 39.59 54.6552C39.7344 54.7951 39.9276 54.8733 40.1286 54.8732H40.3338C40.4591 54.8587 40.5825 54.83 40.7014 54.7877C40.848 54.7367 40.9909 54.6753 41.1288 54.6039C41.2926 54.514 41.4376 54.3936 41.5562 54.2492C41.6286 54.0678 41.69 53.8822 41.74 53.6935C41.7742 53.5482 41.7998 53.4285 41.8255 53.3387V53.0011C41.8262 52.6687 41.7743 52.3383 41.6716 52.0223C41.5562 51.7188 41.4237 51.3384 41.2527 50.8981Z" fill="white"/>
<path d="M56.0546 53.0395C55.9012 52.851 55.7585 52.6541 55.6271 52.4497C55.4975 52.2445 55.3955 52.0232 55.3237 51.7914C55.1441 51.3213 54.9646 50.7827 54.7851 50.1758C54.6145 49.6216 54.5238 49.0459 54.5158 48.4661C54.5158 47.8848 54.5158 47.4402 54.4816 47.1368C54.4474 46.8333 54.4474 46.423 54.4474 45.9058C54.4474 45.5254 54.4474 45.1449 54.4987 44.7774C54.55 44.4098 54.5714 44.0507 54.6184 43.7131C54.6849 43.3822 54.7749 43.0566 54.8877 42.7385C54.9988 42.4222 55.1057 42.1145 55.2083 41.811C55.3108 41.5075 55.3963 41.1955 55.4775 40.8835C55.5577 40.5518 55.5979 40.2117 55.5972 39.8705C55.5936 39.7563 55.5763 39.6429 55.5459 39.5328C55.5197 39.445 55.5025 39.3548 55.4946 39.2635C55.4188 39.2504 55.3488 39.2147 55.2937 39.161C55.1923 39.0883 55.0953 39.0098 55.0031 38.9259C54.9048 38.8361 54.8065 38.7592 54.7167 38.6908C54.6684 38.6459 54.6118 38.6111 54.55 38.5882H53.5712C53.4505 38.5752 53.3284 38.59 53.2143 38.6315C53.1002 38.673 52.9971 38.74 52.913 38.8276C52.786 38.9885 52.689 39.1709 52.6266 39.3661C52.5625 39.567 52.4984 39.7679 52.4428 39.9731C52.4208 40.0622 52.3811 40.1459 52.326 40.2194C52.2709 40.2928 52.2016 40.3544 52.1222 40.4005C52.0254 40.3921 51.9296 40.3749 51.8358 40.3492C51.6905 40.3193 51.5324 40.2765 51.3657 40.2338C51.199 40.1911 51.0323 40.1483 50.8741 40.1141C50.7745 40.0889 50.673 40.0718 50.5707 40.0628C50.2062 40.0636 49.8436 40.1154 49.4935 40.2167C49.1345 40.3193 48.7755 40.4347 48.4121 40.5715C47.9847 40.8407 47.5188 41.1271 47.0828 41.4263C46.6517 41.722 46.2559 42.0662 45.9031 42.4521C45.5523 42.8317 45.2637 43.2645 45.0483 43.7344C44.8242 44.2565 44.7149 44.8206 44.7277 45.3886C44.6887 46.2231 44.9788 47.0396 45.5356 47.6625C46.1207 48.2622 46.8604 48.6883 47.6727 48.8935C47.9322 48.9845 48.2056 49.0293 48.4805 49.026C48.526 49.0302 48.5718 49.0302 48.6173 49.026C48.6613 49.0198 48.7059 49.0198 48.7498 49.026C48.6372 49.2582 48.4934 49.4739 48.3224 49.6671C48.1064 49.9155 47.9038 50.1752 47.7154 50.445C47.5648 50.6577 47.4006 50.8604 47.2239 51.052C47.0786 51.2101 46.8948 51.4324 46.6682 51.7273C46.3771 52.0998 46.063 52.4538 45.7279 52.7874C45.4109 53.0868 45.0723 53.3625 44.7149 53.6123L44.0396 53.9158C43.8915 53.9198 43.7459 53.9548 43.6121 54.0183C43.4585 54.0891 43.3148 54.1796 43.1847 54.2876C43.0515 54.3964 42.9324 54.5214 42.8299 54.6595C42.7363 54.7728 42.6836 54.9143 42.6803 55.0613C42.6936 55.1732 42.7269 55.2818 42.7787 55.3818C42.828 55.4712 42.8626 55.5679 42.8812 55.6682C43.1165 55.9286 43.4092 56.1306 43.7361 56.2581C44.0341 56.4172 44.3612 56.5146 44.6978 56.5444C44.9457 56.5446 45.1931 56.5231 45.4373 56.4803C45.6686 56.4404 45.8879 56.3483 46.0784 56.211C46.4916 56.0469 46.8701 55.8062 47.194 55.5015C47.5183 55.1966 47.821 54.8695 48.1001 54.5227C48.3737 54.185 48.6002 53.8773 48.7926 53.5952C48.9317 53.3792 49.0968 53.1811 49.2841 53.0053L49.3824 52.8386C49.6909 52.392 49.9762 51.9297 50.2373 51.4538C50.4514 51.0695 50.6884 50.6984 50.9468 50.3425C51.0579 50.1202 51.2033 49.8424 51.3742 49.5175C51.5039 49.252 51.6873 49.0162 51.9128 48.8251C51.9765 48.9472 52.0212 49.0784 52.0453 49.2141C52.0923 49.4064 52.135 49.6073 52.1821 49.821C52.2291 50.0347 52.259 50.2484 52.2804 50.445C52.2992 50.5782 52.3106 50.7124 52.3146 50.8468C52.3616 51.2999 52.4214 51.7743 52.5026 52.283C52.5786 52.7831 52.7375 53.267 52.9728 53.7149C53.207 54.1625 53.5493 54.5446 53.9687 54.8262C54.497 55.1407 55.1074 55.2896 55.7212 55.2536C55.7991 55.2585 55.8773 55.2473 55.9508 55.2209C56.0243 55.1944 56.0916 55.1532 56.1486 55.0997C56.2744 54.9934 56.3751 54.8606 56.4435 54.7108C56.5001 54.5738 56.5389 54.4302 56.5589 54.2834C56.5816 54.1549 56.593 54.0248 56.5931 53.8944C56.5757 53.7597 56.5242 53.6318 56.4435 53.5225C56.3238 53.39 56.1999 53.2191 56.0546 53.0395ZM51.605 44.3072C51.5238 44.6235 51.4298 44.9312 51.3187 45.2347C51.1973 45.5297 51.0544 45.8154 50.8912 46.0896C50.7629 46.3288 50.6201 46.56 50.4638 46.782C50.114 46.9421 49.7329 47.0224 49.3482 47.0171C48.9894 46.9685 48.6386 46.8722 48.3053 46.7307C47.9586 46.5082 47.706 46.1659 47.5958 45.769C47.5182 45.5424 47.4848 45.3029 47.4975 45.0637C47.4981 44.9208 47.5081 44.778 47.5274 44.6363C47.5601 44.4558 47.63 44.284 47.7325 44.1319C48.0181 43.7121 48.3572 43.3313 48.7413 42.9993C49.2273 42.6484 49.7985 42.4344 50.3954 42.3795C50.4923 42.3847 50.5883 42.4005 50.6818 42.4265L51.0708 42.5462C51.2033 42.5932 51.3229 42.6359 51.4212 42.683C51.4883 42.7065 51.5517 42.7396 51.6093 42.7813C51.6821 42.987 51.7169 43.2042 51.7119 43.4224C51.712 43.7206 51.6761 44.0176 51.605 44.3072Z" fill="white"/>
<path d="M78.6099 49.1542C78.5073 48.3905 78.3834 47.6382 78.2381 46.8974C78.0983 46.1766 77.8775 45.474 77.5798 44.803C77.4412 44.5072 77.3337 44.1978 77.2593 43.8797C77.1823 43.5506 77.0926 43.2386 76.99 42.9351C76.8956 42.6378 76.751 42.3588 76.5625 42.1102C76.3429 41.8425 76.0433 41.6523 75.7077 41.5673C75.2238 41.5835 74.7603 41.7662 74.3955 42.0845C73.9509 42.4407 73.5544 42.8531 73.2158 43.3112C72.8605 43.7907 72.5445 44.2981 72.2712 44.8286C72.0443 45.2615 71.8417 45.7068 71.6642 46.1622L71.5958 46.3631C71.4163 46.8161 71.2325 47.2863 71.0402 47.7821C70.8746 48.2344 70.6153 48.6466 70.2794 48.9918V48.8251C70.2794 48.2865 70.2794 47.7266 70.3135 47.141C70.3477 46.5554 70.3477 45.8587 70.3477 45.0039C70.3502 44.7646 70.3214 44.5261 70.2623 44.2943C70.2066 44.0634 70.1794 43.8266 70.181 43.5891C70.181 43.4053 70.181 43.1616 70.1469 42.9137C70.1266 42.6492 70.0749 42.3881 69.993 42.1358C69.9214 41.9017 69.7954 41.6879 69.6254 41.5118C69.5326 41.4257 69.4236 41.359 69.3047 41.3157C69.1857 41.2724 69.0594 41.2533 68.933 41.2596C68.8218 41.2596 68.6979 41.2596 68.5611 41.2596C68.4243 41.2596 68.2918 41.2596 68.1593 41.2596C67.9174 41.3678 67.7283 41.5677 67.6336 41.8152C67.5359 42.069 67.4852 42.3384 67.484 42.6103C67.484 42.9907 67.484 43.3796 67.5182 43.7729C67.5524 44.1661 67.5524 44.5551 67.5524 44.9355C67.5524 46.2819 67.5524 47.5641 67.5524 48.7823C67.5524 50.0005 67.5524 51.3127 67.5524 52.7275C67.5578 52.8926 67.6054 53.0535 67.6907 53.1949C67.776 53.3364 67.8961 53.4536 68.0396 53.5353C68.2755 53.7264 68.5624 53.8438 68.8646 53.873C69.0793 53.8722 69.2936 53.8551 69.5057 53.8217C69.7623 53.7759 70.005 53.6721 70.2152 53.5182C70.5212 53.2949 70.7933 53.0286 71.0231 52.7275C71.3924 52.2508 71.7199 51.7431 72.0019 51.2101C72.2589 50.7603 72.4845 50.2933 72.6772 49.8124L73.2329 48.3934C73.4209 47.9104 73.6347 47.406 73.874 46.876C74.1417 46.2845 74.4517 45.7132 74.8015 45.1663C75.0447 45.4763 75.2222 45.8326 75.323 46.2135C75.4536 46.6678 75.5606 47.1287 75.6436 47.5941C75.7333 48.0899 75.8103 48.5772 75.8787 49.0601C75.9388 49.4933 76.0287 49.9217 76.1479 50.3424C76.2518 50.7292 76.3247 51.1237 76.3659 51.5221C76.4194 51.9831 76.5094 52.439 76.6352 52.8856C76.7405 53.2866 76.9187 53.6648 77.1609 54.0012C77.2678 54.1488 77.4097 54.2675 77.5739 54.3466C77.738 54.4257 77.9193 54.4627 78.1013 54.4543C78.4254 54.4403 78.7422 54.3541 79.0288 54.2021C79.1891 54.1355 79.3285 54.0269 79.4323 53.8877C79.5361 53.7486 79.6005 53.584 79.6187 53.4114C79.3409 52.7491 79.1373 52.0582 79.0117 51.3512C78.8279 50.6801 78.7082 49.9278 78.6099 49.1542Z" fill="white"/>
<path d="M91.4028 44.9825C91.2661 44.7133 91.1336 44.4312 90.9968 44.1277C90.8664 43.8385 90.6703 43.5838 90.424 43.384C90.1379 43.1401 89.8201 42.9359 89.4794 42.777C89.1417 42.6231 88.7998 42.4735 88.4536 42.3496L87.4235 41.9222C87.0834 41.7995 86.7557 41.6449 86.4447 41.4605C86.2681 41.3317 86.0563 41.2601 85.8377 41.2554C85.318 41.2643 84.8131 41.4296 84.3888 41.7298C83.9173 42.0396 83.4865 42.4072 83.1065 42.824C82.7537 43.2172 82.4442 43.6471 82.1832 44.1063C81.9872 44.4294 81.8281 44.7735 81.7088 45.1321C81.5763 45.7177 81.4224 46.3546 81.2557 47.0385C81.1013 47.6161 81.0166 48.2102 81.0035 48.808C80.9737 49.7017 81.1833 50.5871 81.6105 51.3726C82.0193 52.0769 82.6098 52.6585 83.3202 53.0567C83.6579 53.2575 83.9784 53.4841 84.2819 53.6807C84.5805 53.895 84.9402 54.0075 85.3077 54.0013H85.5086C85.6382 53.9946 85.768 53.9946 85.8976 54.0013C86.0215 54.0013 86.1412 54.0013 86.2523 54.0013C86.6763 53.9952 87.0904 53.8724 87.4491 53.6465C87.855 53.403 88.2333 53.1164 88.5775 52.7917C88.9326 52.4583 89.26 52.0967 89.5564 51.7103C89.847 51.3298 90.0821 50.9922 90.2659 50.7015C90.6193 50.1486 90.928 49.5683 91.1891 48.9662C91.4549 48.3528 91.6 47.6939 91.6166 47.0256V46.3845C91.6166 46.1366 91.6166 45.8972 91.5824 45.6622C91.5643 45.4266 91.5035 45.1963 91.4028 44.9825ZM88.6374 46.0939C88.5904 46.5213 88.5177 47.0171 88.4194 47.5129C88.3215 47.9945 88.1858 48.4675 88.0133 48.9277C87.8482 49.3702 87.627 49.7896 87.3551 50.1758C87.1045 50.5396 86.7833 50.8492 86.4105 51.0862C86.1669 51.1973 85.9403 51.2914 85.7394 51.3726C85.5232 51.4517 85.2943 51.4908 85.0641 51.488C84.9351 51.49 84.8076 51.4603 84.6928 51.4014C84.578 51.3425 84.4795 51.2563 84.4058 51.1503C84.2327 50.9167 84.1011 50.655 84.0169 50.3767C83.9307 50.0977 83.8692 49.8116 83.8331 49.5218C83.8067 49.3419 83.7896 49.1607 83.7818 48.979C83.7896 48.4768 83.8411 47.9763 83.9357 47.483C84.0286 46.9245 84.1924 46.3801 84.4229 45.863C84.6252 45.3969 84.8977 44.9645 85.2308 44.5808C85.373 44.4155 85.5496 44.2833 85.7482 44.1932C85.9467 44.1031 86.1625 44.0574 86.3806 44.0593C86.9263 44.0528 87.4628 44.201 87.9279 44.4867C88.1635 44.6369 88.354 44.8482 88.479 45.0981C88.6039 45.348 88.6587 45.6272 88.6374 45.9058V46.0939Z" fill="white"/>
<path d="M103.405 35.9809C103.408 35.9582 103.408 35.9352 103.405 35.9125C103.399 35.8901 103.399 35.8665 103.405 35.8441C103.396 35.574 103.344 35.3071 103.251 35.0534C103.161 34.7721 103.054 34.4966 102.931 34.2284C102.832 34.0054 102.714 33.7909 102.58 33.5873C102.456 33.4078 102.383 33.318 102.358 33.318V33.1171C101.871 32.6024 101.271 32.2086 100.605 31.9673C99.9861 31.7638 99.3381 31.6614 98.6862 31.6639C98.2648 31.6703 97.8457 31.7277 97.4381 31.8348C96.9822 31.9498 96.5362 32.1013 96.1045 32.2879C95.6776 32.4747 95.266 32.6948 94.8736 32.9461C94.5341 33.1611 94.2175 33.4103 93.9289 33.6899C93.8741 33.7838 93.8127 33.8738 93.7452 33.9591C93.6426 34.0917 93.5314 34.2455 93.4075 34.4122C93.2835 34.5789 93.1767 34.7413 93.0869 34.8867C93.0315 34.9643 92.9869 35.0491 92.9544 35.1388C92.9558 35.3965 93.0189 35.65 93.1382 35.8783C93.1979 35.9992 93.2926 36.0994 93.41 36.1657C93.5274 36.2321 93.6621 36.2615 93.7964 36.2502C93.9693 36.2512 94.1405 36.2173 94.2999 36.1504C94.4593 36.0836 94.6035 35.9852 94.724 35.8612C94.9804 35.6047 95.301 35.3198 95.6857 35.0063C95.9293 34.8055 96.1345 34.6473 96.2926 34.5362C96.4508 34.425 96.5833 34.3353 96.6944 34.2669C96.8052 34.1999 96.9245 34.1481 97.0492 34.113L97.5065 33.9976C97.8185 33.9292 98.0707 33.8822 98.2631 33.8608C98.4148 33.8416 98.5675 33.8301 98.7204 33.8266C98.9044 33.8208 99.0875 33.8561 99.2561 33.93C99.4247 34.004 99.5746 34.1147 99.6949 34.2541C99.968 34.5812 100.174 34.9588 100.302 35.3654C100.472 35.8762 100.596 36.4012 100.674 36.934C100.764 37.5196 100.84 38.1009 100.909 38.6865V39.6226C100.909 39.8918 100.909 40.1739 100.909 40.4774C100.909 40.7809 100.875 41.0331 100.84 41.2682C100.818 41.4619 100.779 41.6534 100.725 41.8409C100.678 41.9905 100.622 42.0632 100.554 42.0632H100.353C100.202 42.0708 100.051 42.0708 99.9001 42.0632C99.7705 42.0566 99.6407 42.0566 99.5111 42.0632C98.7366 42.045 97.9702 42.2245 97.2843 42.5846C96.6674 42.925 96.1148 43.3705 95.6515 43.9011C95.1938 44.4223 94.8137 45.0067 94.5231 45.6365C94.2503 46.2111 94.0133 46.8021 93.8135 47.406C93.6569 47.8684 93.5327 48.3412 93.4417 48.8208C93.3733 49.2141 93.3434 49.4363 93.3434 49.4791V49.7483C93.3434 50.0646 93.3434 50.4108 93.3904 50.7955C93.421 51.1622 93.4956 51.5238 93.6126 51.8727C93.8617 52.714 94.3611 53.4595 95.0445 54.0098C95.5269 54.372 96.1086 54.5779 96.7115 54.5996C97.4476 54.609 98.1697 54.3976 98.7845 53.9927C99.3682 53.6181 99.9011 53.1699 100.37 52.6591C100.759 52.2445 101.098 51.7871 101.383 51.2956C101.524 51.0545 101.653 50.8063 101.768 50.5519C102.316 49.4552 102.762 48.3106 103.102 47.1325C103.441 45.9725 103.662 44.781 103.76 43.5763C103.76 43.1488 103.803 42.7984 103.828 42.5291C103.854 42.2598 103.871 42.0247 103.892 41.8238C103.914 41.6229 103.931 41.3964 103.944 41.2169C103.956 41.0374 103.944 40.7894 103.944 40.5073C103.944 40.1269 103.922 39.5114 103.875 38.6694C103.816 37.7589 103.658 36.8575 103.405 35.9809ZM100.216 45.692C100.231 45.9694 100.18 46.2462 100.067 46.4999L99.7975 47.4445C99.6607 47.936 99.5197 48.4276 99.3701 48.9106C99.2237 49.3961 99.026 49.8646 98.7803 50.3083C98.6957 50.5143 98.5819 50.7072 98.4426 50.881C98.2545 51.1403 98.0519 51.3886 97.8356 51.6247C97.6294 51.856 97.405 52.0704 97.1646 52.2659C97.0251 52.4035 96.8482 52.4972 96.6559 52.5352C96.6132 52.5352 96.5576 52.4839 96.4892 52.3813C96.4208 52.283 96.3482 52.1676 96.2712 52.0436C96.1943 51.9197 96.1216 51.8085 96.0661 51.706C96.0332 51.6413 95.9946 51.5798 95.9507 51.5222C95.8859 51.0977 95.8516 50.6692 95.8481 50.2399C95.8463 49.7473 95.8965 49.2559 95.9977 48.7738C96.1213 48.2443 96.274 47.7221 96.455 47.2094C96.6346 46.9359 96.8013 46.6623 96.9594 46.3802C97.1255 46.0833 97.3111 45.7977 97.5151 45.5253C97.7353 45.2366 97.9909 44.9767 98.2759 44.7517C98.5984 44.4947 98.9628 44.2952 99.353 44.1619C99.5863 44.1594 99.819 44.1867 100.045 44.2431C100.259 44.3029 100.366 44.4867 100.366 44.7987C100.255 45.0829 100.204 45.3871 100.216 45.692Z" fill="white"/>
<path d="M116.215 44.5423C115.95 44.0564 115.627 43.6043 115.253 43.1959C114.912 42.8144 114.507 42.4949 114.057 42.2513C114.04 42.2579 114.022 42.2579 114.005 42.2513C113.989 42.2457 113.971 42.2457 113.954 42.2513L113.856 42.1829C113.557 42.0075 113.24 41.8642 112.911 41.7554C112.461 41.6365 111.996 41.5847 111.53 41.6016H111.291C111.066 41.6115 110.843 41.6577 110.633 41.7383L109.979 41.9734C109.863 41.5789 109.682 41.2062 109.445 40.8707C109.231 40.5757 108.812 40.4432 108.184 40.4432C107.555 40.4432 107.222 40.5458 107.051 40.7467C106.864 41.0119 106.775 41.3336 106.799 41.6571C106.799 42.6003 106.839 43.5164 106.918 44.4055C106.998 45.2945 107.037 46.2107 107.034 47.1539C107.034 48.2937 107.045 49.3437 107.068 50.304C107.091 51.2643 107.102 52.2146 107.102 53.1549C107.102 54.4315 107.091 55.6611 107.068 56.8436C107.045 58.0262 107.034 59.2016 107.034 60.3699V61.5154C107.034 61.8958 107.034 62.2763 107.068 62.6609C107.047 62.8191 107.03 62.9687 107.017 63.114C107.004 63.2593 107.017 63.3918 107.017 63.503C107.021 63.6894 107.067 63.8726 107.152 64.0389C107.236 64.2053 107.356 64.3508 107.504 64.4647C107.772 64.7249 108.127 64.8771 108.5 64.8921C108.815 64.9046 109.124 64.808 109.376 64.6186C109.602 64.4359 109.785 64.2071 109.915 63.9475C110.049 63.677 110.145 63.3894 110.201 63.0926C110.252 62.8493 110.281 62.6018 110.287 62.3532C110.282 61.8396 110.242 61.3268 110.167 60.8187C110.085 60.221 110.045 59.6183 110.047 59.015V53.8559C110.042 53.7243 110.065 53.593 110.116 53.4712C110.223 53.5131 110.338 53.5348 110.453 53.5354H110.757C111.727 53.5592 112.69 53.3634 113.574 52.9626C114.321 52.6176 114.992 52.1247 115.544 51.5136C116.052 50.9495 116.448 50.2938 116.711 49.5816C116.957 48.9593 117.089 48.2975 117.1 47.6283C117.094 47.1027 117.015 46.5805 116.865 46.0767C116.703 45.5438 116.485 45.0295 116.215 44.5423ZM112.911 50.3425L112.236 50.7699C111.932 50.929 111.609 51.0469 111.274 51.1204C110.969 51.1811 110.658 51.2097 110.346 51.2059C110.167 51.2059 110.056 51.005 110.013 50.5989C109.965 50.1518 109.942 49.7023 109.945 49.2525V48.1027C109.945 47.8805 109.945 47.483 109.893 46.9059C109.842 46.3289 109.842 45.8331 109.842 45.4057C109.816 45.1909 109.84 44.9731 109.91 44.7688C109.944 44.7524 109.973 44.7291 109.996 44.7004C110.007 44.6748 110.023 44.6516 110.043 44.632C110.156 44.5412 110.275 44.457 110.398 44.3798C110.55 44.2749 110.715 44.1901 110.889 44.1277L111.317 43.9567C111.72 44.0117 112.106 44.1579 112.445 44.3841C112.78 44.614 113.07 44.9038 113.3 45.239C113.534 45.5742 113.716 45.9432 113.839 46.3332C113.961 46.7204 114.023 47.124 114.022 47.53C114.035 48.0493 113.943 48.5659 113.752 49.0491C113.561 49.5322 113.275 49.972 112.911 50.3425Z" fill="white"/>
<path d="M129.128 44.9825C128.991 44.7133 128.858 44.4312 128.722 44.1277C128.591 43.8385 128.395 43.5838 128.149 43.384C127.863 43.1401 127.545 42.9359 127.204 42.777C126.867 42.6231 126.525 42.4735 126.178 42.3496L125.148 41.9222C124.808 41.7995 124.48 41.6449 124.169 41.4605C123.993 41.3317 123.781 41.2601 123.563 41.2554C123.043 41.2643 122.538 41.4296 122.114 41.7298C121.642 42.0396 121.211 42.4072 120.831 42.824C120.478 43.2172 120.169 43.6471 119.908 44.1063C119.712 44.4294 119.553 44.7735 119.434 45.1321C119.301 45.7177 119.147 46.3546 118.98 47.0385C118.825 47.616 118.739 48.2101 118.724 48.808C118.696 49.7015 118.906 50.5863 119.331 51.3726C119.741 52.0756 120.332 52.6568 121.041 53.0567C121.378 53.2575 121.699 53.4841 122.002 53.6807C122.301 53.895 122.661 54.0075 123.028 54.0013H123.229C123.359 53.9946 123.489 53.9946 123.618 54.0013C123.742 54.0013 123.857 54.0013 123.973 54.0013C124.397 53.9952 124.811 53.8724 125.17 53.6465C125.575 53.403 125.954 53.1164 126.298 52.7917C126.653 52.4583 126.98 52.0967 127.277 51.7103C127.568 51.3298 127.803 50.9922 127.986 50.7015C128.34 50.1486 128.649 49.5683 128.91 48.9662C129.175 48.3528 129.32 47.6939 129.337 47.0256V46.3845C129.337 46.1366 129.337 45.8972 129.303 45.6622C129.286 45.4269 129.227 45.1966 129.128 44.9825ZM126.362 46.0939C126.315 46.5213 126.242 47.0171 126.144 47.5129C126.046 47.9945 125.911 48.4675 125.738 48.9277C125.573 49.3702 125.352 49.7896 125.08 50.1758C124.828 50.5386 124.507 50.848 124.135 51.0862C123.887 51.1973 123.665 51.2914 123.464 51.3726C123.248 51.4517 123.019 51.4908 122.789 51.488C122.66 51.49 122.532 51.4603 122.418 51.4014C122.303 51.3425 122.204 51.2563 122.131 51.1503C121.957 50.9167 121.826 50.655 121.742 50.3767C121.655 50.0977 121.594 49.8116 121.558 49.5218C121.531 49.3419 121.514 49.1607 121.507 48.979C121.514 48.4768 121.566 47.9763 121.66 47.483C121.753 46.9245 121.917 46.3801 122.148 45.863C122.35 45.3969 122.622 44.9645 122.956 44.5808C123.098 44.4155 123.274 44.2833 123.473 44.1932C123.672 44.1031 123.887 44.0574 124.105 44.0593C124.651 44.0528 125.188 44.201 125.653 44.4867C125.888 44.6369 126.079 44.8482 126.204 45.0981C126.329 45.348 126.383 45.6272 126.362 45.9058V46.0939Z" fill="white"/>
<path d="M141.074 32.1384C141.053 32.0914 140.989 32.07 140.886 32.07C140.784 32.07 140.724 32.0358 140.702 31.9674H140.095C139.731 31.9677 139.37 32.0434 139.035 32.1897C138.666 32.3416 138.288 32.4701 137.903 32.5744C137.813 32.6 137.612 32.6727 137.296 32.7966C136.979 32.9206 136.642 33.0573 136.27 33.224L135.206 33.6814C134.872 33.8267 134.633 33.9336 134.5 34.002C134.217 34.1733 133.918 34.3165 133.607 34.4294C133.315 34.5351 133.029 34.6593 132.752 34.8013C132.502 34.9221 132.279 35.0938 132.098 35.3056C131.915 35.5512 131.825 35.8545 131.846 36.1605C131.864 36.6126 131.961 37.0582 132.132 37.477C132.479 38.2528 132.938 38.9731 133.496 39.6141C133.823 40.0947 134.179 40.5556 134.56 40.9947C134.933 41.3934 135.255 41.8371 135.518 42.3154C135.319 42.4773 135.106 42.6204 134.881 42.7429C134.58 42.9279 134.294 43.1366 134.026 43.3669C133.666 43.6693 133.332 44.0025 133.03 44.3628C132.641 44.8287 132.307 45.3378 132.034 45.8802C131.45 46.8112 131.124 47.8806 131.09 48.979L130.991 50.2613L131.26 51.5094C131.425 52.1697 131.796 52.76 132.321 53.1935C132.786 53.577 133.31 53.8843 133.872 54.1039C134.327 54.2882 134.802 54.4188 135.287 54.4929C135.5 54.5014 135.71 54.5418 135.911 54.6125H135.945C136.023 54.6084 136.102 54.6084 136.18 54.6125C136.291 54.6125 136.449 54.6125 136.655 54.6125C136.86 54.6125 137.082 54.5484 137.326 54.4929C137.5 54.4594 137.67 54.4093 137.834 54.3433C137.877 54.3176 137.997 54.2663 138.185 54.1894C138.403 54.0974 138.612 53.9843 138.809 53.8517C139.042 53.7018 139.262 53.5331 139.467 53.3473C139.671 53.1744 139.819 52.9456 139.895 52.6891L140.322 51.8343C140.47 51.6076 140.589 51.3635 140.677 51.1076C140.784 50.8167 140.868 50.5181 140.929 50.2143C140.996 49.908 141.047 49.5984 141.083 49.2868C141.115 49.013 141.132 48.7376 141.134 48.4618C141.142 47.36 140.958 46.2651 140.591 45.2262C140.232 44.5281 139.919 43.9582 139.651 43.5165C139.377 43.0891 139.138 42.7001 138.924 42.3838C138.711 42.0675 138.497 41.7897 138.3 41.529C138.104 41.2682 137.873 41.0032 137.659 40.6741L136.411 38.99C135.984 38.3347 135.68 37.8901 135.501 37.6565C135.341 37.4726 135.246 37.2413 135.231 36.9982C135.231 36.8657 135.355 36.7119 135.603 36.5452C135.877 36.3589 136.163 36.1905 136.458 36.0408C136.783 35.8698 137.112 35.7117 137.437 35.5663C137.762 35.421 138.014 35.3142 138.193 35.2458C138.599 35.1133 139.005 34.9936 139.407 34.891C139.809 34.7884 140.168 34.6944 140.472 34.6046C140.723 34.5346 140.969 34.4504 141.211 34.3525C141.403 34.2755 141.497 34.2029 141.497 34.1345C141.656 34.1345 141.775 34.0276 141.852 33.8139C141.919 33.6593 141.959 33.4946 141.972 33.3266C141.969 33.0477 141.881 32.7762 141.72 32.5487C141.551 32.3495 141.326 32.2063 141.074 32.1384ZM135.945 45.0681C136.217 44.7844 136.583 44.6096 136.975 44.5765C137.095 44.59 137.207 44.6443 137.291 44.7304C137.413 44.8278 137.521 44.9414 137.612 45.0681C137.702 45.192 137.783 45.3032 137.851 45.4057C137.894 45.4611 137.927 45.5233 137.95 45.5895C138.018 45.7691 138.074 45.9315 138.121 46.0768C138.168 46.2443 138.206 46.414 138.236 46.5854C138.27 46.7735 138.305 46.9872 138.339 47.2223C138.373 47.4574 138.411 47.7566 138.458 48.1156C138.458 48.3635 138.458 48.5431 138.458 48.6927C138.458 48.8423 138.458 48.9277 138.458 48.9919V49.1628C138.455 49.8223 138.222 50.4601 137.8 50.9666C137.384 51.4495 136.84 51.8063 136.231 51.9967C135.882 52.0025 135.537 51.9264 135.223 51.7744C134.934 51.6335 134.672 51.4458 134.445 51.2188C134.224 50.9994 134.052 50.7357 133.94 50.4451C133.831 50.1731 133.773 49.8833 133.769 49.5903C133.776 49.0044 133.89 48.4247 134.107 47.8805C134.322 47.318 134.6 46.7817 134.936 46.282C135.211 45.8373 135.542 45.4294 135.919 45.0681H135.945Z" fill="white"/>
<path d="M153.735 40.6484L153.35 40.4304C153.273 40.3802 153.188 40.3453 153.098 40.3278C152.789 40.3086 152.483 40.4062 152.243 40.6014C152.054 40.766 151.9 40.9665 151.79 41.1912C151.693 41.3886 151.626 41.5987 151.589 41.8153C151.555 42.0147 151.538 42.1259 151.538 42.1487L151.234 44.8115C151.234 44.8799 151.234 45.021 151.2 45.239C151.166 45.457 151.166 45.5937 151.166 45.6664C151.021 45.7982 150.857 45.9063 150.679 45.987C150.396 46.1323 150.106 46.2733 149.802 46.4144C149.499 46.5554 149.217 46.6666 148.947 46.7692C148.808 46.8295 148.666 46.8809 148.52 46.923C148.272 47.0342 147.939 47.1624 147.524 47.3077C147.239 47.4243 146.938 47.4991 146.631 47.53C146.541 47.53 146.498 47.5043 146.498 47.4616C146.498 47.1667 146.537 46.658 146.614 45.9271C146.691 45.1962 146.733 44.0422 146.733 42.4692C146.712 42.2683 146.695 42.076 146.682 41.8965C146.672 41.7299 146.637 41.5658 146.58 41.4092C146.515 41.2394 146.404 41.0913 146.259 40.9818C146.057 40.8349 145.829 40.7262 145.588 40.6612C145.3 40.6528 145.013 40.6816 144.733 40.7467C144.555 40.7911 144.396 40.8915 144.28 41.0331C144.169 41.1868 144.1 41.3664 144.079 41.5545C144.041 41.8292 144.024 42.1064 144.028 42.3838C144.026 42.5128 144.037 42.6417 144.062 42.7684C144.086 42.9197 144.098 43.0726 144.096 43.2258C144.096 43.9652 144.066 44.6961 144.011 45.4142C143.955 46.1323 143.882 46.8546 143.793 47.5514C143.741 47.8077 143.713 48.068 143.707 48.3293C143.716 48.606 143.693 48.8827 143.639 49.1542L143.211 53.5011C143.251 53.6212 143.273 53.7465 143.275 53.873C143.271 54.0748 143.232 54.2744 143.16 54.4629C143.08 54.6731 143.039 54.8962 143.04 55.1211C143.21 55.4859 143.472 55.7998 143.801 56.0315C144.15 56.246 144.555 56.3516 144.964 56.335C145.08 56.3248 145.193 56.2874 145.292 56.2257C145.392 56.1641 145.476 56.08 145.537 55.9802C145.69 55.8019 145.794 55.5869 145.84 55.3562L145.943 54.9544C145.964 54.839 145.981 54.7621 145.99 54.715C145.998 54.6484 145.998 54.5808 145.99 54.5142V53.4285C145.99 53.1336 145.99 52.8044 146.024 52.4326C146.058 52.0607 146.079 51.706 146.126 51.3726C146.173 51.0392 146.216 50.7314 146.259 50.4621C146.286 50.2659 146.332 50.0726 146.396 49.8851C146.396 49.8851 146.447 49.8295 146.55 49.7868C146.652 49.7441 146.755 49.697 146.866 49.65L147.157 49.5346C147.233 49.5004 147.259 49.4833 147.238 49.4833C147.649 49.3765 148.049 49.2335 148.435 49.0559C148.653 48.9406 148.886 48.8558 149.127 48.8037C149.243 48.7833 149.357 48.7489 149.465 48.7011C149.644 48.637 149.837 48.5558 150.037 48.4661C150.238 48.3763 150.431 48.2994 150.61 48.231C150.728 48.1782 150.854 48.1436 150.982 48.1284C151.093 48.1284 151.153 48.1583 151.166 48.2139C151.172 48.265 151.172 48.3166 151.166 48.3677V50.9323C151.166 51.2914 151.166 51.6247 151.166 51.9282C151.166 52.2317 151.166 52.5608 151.166 52.9198C151.166 53.1036 151.166 53.2703 151.166 53.4285C151.166 53.5866 151.166 53.7405 151.166 53.8987C151.17 54.3397 151.261 54.7755 151.435 55.1809C151.504 55.3822 151.638 55.5553 151.814 55.6741C151.991 55.7928 152.201 55.8508 152.414 55.8392C152.697 55.8498 152.979 55.7972 153.239 55.6853C153.428 55.6009 153.6 55.4804 153.743 55.3305C153.856 55.2166 153.942 55.0795 153.995 54.9288C154.034 54.8317 154.057 54.7294 154.064 54.6253L154.132 54.2876C154.132 54.2192 154.132 54.0867 154.132 53.8602C154.132 53.6337 154.102 53.4328 154.081 53.202C154.059 52.9711 154.042 52.7489 154.03 52.548C154.017 52.3471 154.03 52.2103 154.03 52.1419C154.008 51.4452 153.991 50.8596 153.978 50.3895C153.965 49.9193 153.957 49.5346 153.948 49.2098C153.94 48.8849 153.948 48.6541 153.948 48.4831V47.3547C153.948 47.1282 153.948 46.7649 153.983 46.2605C154.017 45.7562 154.038 45.3544 154.081 45.0637C154.128 44.6107 154.162 44.1704 154.183 43.7301C154.205 43.2899 154.239 42.8368 154.286 42.3667C154.305 42.2092 154.315 42.0508 154.316 41.8922V41.0032L154.081 40.8707L153.735 40.6484Z" fill="white"/>
<path d="M167.523 44.9825C167.391 44.7133 167.254 44.4312 167.122 44.1277C166.988 43.8404 166.793 43.5864 166.549 43.384C166.262 43.141 165.945 42.9369 165.604 42.777C165.267 42.6231 164.925 42.4735 164.574 42.3496C164.224 42.2256 163.882 42.0803 163.548 41.9222C163.208 41.8003 162.88 41.6457 162.57 41.4605C162.393 41.3322 162.181 41.2606 161.963 41.2554C161.443 41.263 160.937 41.4284 160.514 41.7298C160.041 42.0384 159.61 42.4062 159.231 42.824C158.877 43.2171 158.566 43.647 158.304 44.1063C158.107 44.4284 157.949 44.7728 157.834 45.1321C157.697 45.7177 157.547 46.3546 157.376 47.0385C157.224 47.6166 157.139 48.2104 157.124 48.808C157.094 49.7017 157.304 50.5871 157.731 51.3726C158.142 52.075 158.732 52.656 159.441 53.0567C159.778 53.2575 160.099 53.4841 160.403 53.6807C160.703 53.8937 161.064 54.006 161.433 54.0013H161.634C161.763 53.9947 161.893 53.9947 162.022 54.0013C162.142 54.0013 162.262 54.0013 162.373 54.0013C162.797 53.9952 163.211 53.8724 163.57 53.6465C163.976 53.402 164.356 53.1155 164.702 52.7917C165.057 52.4594 165.383 52.0976 165.677 51.7103C165.931 51.3866 166.168 51.0499 166.387 50.7015C166.74 50.1477 167.05 49.5675 167.314 48.9662C167.578 48.3522 167.723 47.6937 167.741 47.0256V46.3845C167.741 46.1366 167.741 45.8972 167.712 45.6622C167.691 45.4261 167.627 45.1958 167.523 44.9825ZM164.762 46.0939C164.715 46.5213 164.643 47.0171 164.54 47.5129C164.444 47.9944 164.309 48.4674 164.138 48.9277C163.971 49.3694 163.75 49.7886 163.48 50.1758C163.228 50.5386 162.907 50.848 162.535 51.0862C162.287 51.1973 162.065 51.2914 161.86 51.3726C161.644 51.4521 161.415 51.4912 161.185 51.488C161.056 51.4904 160.929 51.4609 160.815 51.4019C160.701 51.343 160.603 51.2565 160.531 51.1503C160.356 50.9177 160.224 50.6557 160.142 50.3767C160.054 50.0982 159.992 49.812 159.958 49.5218C159.932 49.3419 159.914 49.1607 159.907 48.979C159.915 48.477 159.965 47.9766 160.056 47.483C160.153 46.9248 160.318 46.3807 160.548 45.863C160.747 45.3952 161.02 44.9623 161.356 44.5808C161.497 44.4156 161.673 44.2834 161.871 44.1933C162.069 44.1032 162.284 44.0575 162.501 44.0593C163.048 44.0534 163.586 44.2015 164.053 44.4867C164.288 44.6375 164.478 44.849 164.603 45.0987C164.727 45.3485 164.783 45.6273 164.762 45.9058V46.0939Z" fill="white"/>
<path d="M176.324 52.0266H175.897C175.666 52.0179 175.44 51.9627 175.231 51.8643C175.023 51.7659 174.836 51.6263 174.683 51.4538C174.386 51.2772 174.12 51.0551 173.892 50.7956C173.595 50.4705 173.34 50.1085 173.136 49.7185C172.907 49.2944 172.719 48.8492 172.576 48.3892C172.432 47.9297 172.359 47.4514 172.358 46.9701C172.359 46.6839 172.382 46.3981 172.426 46.1153C172.465 45.8064 172.581 45.5123 172.764 45.2604C172.845 45.0824 172.96 44.9214 173.101 44.786C173.272 44.6193 173.452 44.4623 173.64 44.3158C173.921 44.101 174.227 43.9202 174.55 43.7772C174.766 43.6672 175.001 43.5991 175.243 43.5763C175.493 43.5483 175.737 43.479 175.965 43.3712C176.072 43.3417 176.172 43.2909 176.258 43.2219C176.345 43.1528 176.417 43.0669 176.47 42.9694C176.562 42.8226 176.631 42.6626 176.675 42.4949C176.615 42.1174 176.437 41.7686 176.166 41.499C175.836 41.3167 175.466 41.2183 175.089 41.2127C174.744 41.2117 174.401 41.2695 174.076 41.3836C173.764 41.4948 173.448 41.5973 173.136 41.6871L171.853 42.2599C171.45 42.5291 171.095 42.866 170.806 43.2558C170.511 43.6532 170.263 44.0835 170.067 44.538C169.867 45.005 169.714 45.4903 169.609 45.987C169.513 46.454 169.463 46.9293 169.46 47.4061C169.461 47.5804 169.472 47.7546 169.494 47.9276C169.517 48.155 169.556 48.3806 169.609 48.6029C169.664 48.8361 169.733 49.0659 169.814 49.291C169.875 49.4882 169.972 49.6723 170.101 49.8339C170.388 50.5244 170.806 51.1529 171.332 51.6846C171.85 52.2181 172.395 52.7246 172.965 53.202C173.287 53.4331 173.647 53.6053 174.029 53.7107C174.375 53.8004 174.738 53.8987 175.123 54.0141C175.371 53.9885 175.623 53.9628 175.88 53.9286C176.115 53.9002 176.347 53.8486 176.572 53.7748C176.76 53.7189 176.93 53.6142 177.064 53.4713C177.191 53.3216 177.257 53.1291 177.247 52.9327C177.254 52.6835 177.163 52.4415 176.995 52.2574C176.906 52.1731 176.801 52.1089 176.685 52.0691C176.569 52.0292 176.446 52.0148 176.324 52.0266Z" fill="white"/>
<path d="M197.764 49.9706C197.653 49.073 197.516 48.2267 197.362 47.4061C197.198 46.5611 197.118 45.7021 197.123 44.8415V44.3371C197.138 43.8505 197.093 43.3639 196.99 42.8881C196.929 42.6083 196.802 42.3474 196.618 42.1273C196.46 41.9603 196.264 41.8341 196.046 41.7597C195.792 41.6669 195.544 41.5598 195.302 41.4392C194.73 41.4711 194.178 41.6572 193.703 41.9777C193.245 42.2911 192.835 42.6714 192.49 43.1061C192.139 43.5457 191.834 44.0197 191.579 44.5209C191.318 45.0296 191.088 45.4955 190.887 45.9229C190.818 46.0554 190.729 46.2434 190.617 46.4785C190.506 46.7136 190.391 46.9744 190.28 47.2522L189.959 48.0643C189.861 48.3207 189.784 48.5302 189.741 48.6841C189.582 48.0344 189.419 47.3049 189.254 46.4956C189.083 45.6835 188.899 44.9569 188.698 44.3029C188.601 43.9203 188.526 43.532 188.476 43.1403C188.428 42.7536 188.332 42.3745 188.19 42.0119C188.065 41.6791 187.856 41.3845 187.583 41.1571C187.254 40.9105 186.847 40.7906 186.437 40.8194C186.207 40.8223 185.981 40.8733 185.771 40.969C185.562 41.0646 185.376 41.203 185.223 41.375C184.864 41.7469 184.548 42.0974 184.279 42.4351C184.059 42.7071 183.856 42.9926 183.672 43.2899C183.469 43.6262 183.273 43.9809 183.082 44.3542C182.889 44.7261 182.714 45.0894 182.543 45.4484C182.372 45.8075 182.223 46.1366 182.09 46.4272C182.05 46.2504 182.027 46.07 182.022 45.8887C182.024 45.603 182.041 45.3177 182.073 45.0338C182.104 44.7499 182.12 44.4646 182.12 44.179C182.12 43.9097 182.12 43.6019 182.09 43.2515C182.069 42.92 182.006 42.5925 181.902 42.2769C181.809 41.9852 181.641 41.7229 181.415 41.5161C181.149 41.3006 180.812 41.1924 180.47 41.2126C180.147 41.2168 179.836 41.3366 179.594 41.5503C179.469 41.6456 179.367 41.7684 179.297 41.9092C179.226 42.05 179.189 42.205 179.188 42.3624C179.186 42.6027 179.227 42.8414 179.308 43.0677C179.385 43.2962 179.424 43.5359 179.423 43.7772C179.423 43.9567 179.423 44.0507 179.457 44.0636C179.491 44.0764 179.504 44.179 179.526 44.3841C179.547 44.5893 179.573 44.9612 179.594 45.5125C179.615 46.0639 179.628 46.9658 179.628 48.2267C179.628 48.2951 179.628 48.4618 179.594 48.7311C179.56 49.0004 179.547 49.2867 179.526 49.5859C179.504 49.8851 179.483 50.1758 179.457 50.4408C179.432 50.7058 179.423 50.8682 179.423 50.9494C179.423 51.1973 179.423 51.4324 179.423 51.6547C179.41 51.8814 179.381 52.1071 179.338 52.33C179.341 52.5249 179.374 52.718 179.436 52.9028C179.503 53.1045 179.594 53.2969 179.709 53.4755C179.821 53.6539 179.967 53.8091 180.137 53.9329C180.286 54.0502 180.469 54.1149 180.658 54.1167C180.89 54.1363 181.123 54.1085 181.343 54.0351C181.564 53.9616 181.767 53.8439 181.941 53.6892C182.215 53.3796 182.411 53.0088 182.513 52.6079C182.637 52.1804 182.748 51.6889 182.851 51.1589C182.962 50.6078 183.162 50.0782 183.441 49.5902C183.552 49.3209 183.676 48.9576 183.813 48.496C183.95 48.0344 184.108 47.5642 184.3 47.0812C184.492 46.5982 184.706 46.1323 184.941 45.6792C185.14 45.2778 185.421 44.9226 185.766 44.6363C185.972 44.9623 186.137 45.3126 186.258 45.6792C186.403 46.1067 186.535 46.564 186.659 47.047C186.783 47.53 186.886 48.0173 186.963 48.5131C187.04 49.0089 187.104 49.4663 187.151 49.8937C187.198 50.3211 187.279 50.7485 187.335 51.2785C187.388 51.7789 187.478 52.2747 187.604 52.7617C187.707 53.1857 187.889 53.5861 188.143 53.9414C188.258 54.0946 188.409 54.2175 188.583 54.2994C188.756 54.3813 188.947 54.4198 189.138 54.4116C189.442 54.4137 189.742 54.3449 190.015 54.2107C190.2 53.8627 190.358 53.5012 190.489 53.1293C190.6 52.7959 190.699 52.4583 190.793 52.1206C190.887 51.7829 190.976 51.441 191.079 51.0905C191.191 50.7147 191.334 50.3487 191.506 49.9963C191.665 49.6372 191.857 49.2397 192.079 48.7995L192.772 47.4488C193.007 46.9914 193.242 46.5384 193.481 46.1024L194.135 44.8714C194.246 45.2335 194.321 45.6058 194.357 45.9827C194.392 46.346 194.422 46.7051 194.456 47.0641C194.49 47.4231 194.528 47.7865 194.575 48.1583C194.621 48.5325 194.711 48.8999 194.845 49.2525C194.937 49.634 194.992 50.0232 195.011 50.4151C195.06 50.99 195.145 51.5611 195.268 52.1249C195.374 52.6588 195.567 53.1715 195.841 53.6422C195.944 53.8428 196.101 54.0106 196.294 54.1268C196.487 54.2431 196.709 54.3032 196.935 54.3005C197.341 54.3029 197.732 54.15 198.029 53.873C198.187 53.7218 198.31 53.5377 198.389 53.3339C198.468 53.1301 198.501 52.9114 198.486 52.6933C198.483 52.2041 198.373 51.7215 198.166 51.2785C197.966 50.8655 197.831 50.4245 197.764 49.9706Z" fill="white"/>
<path d="M182.629 39.2166C182.748 39.2134 182.866 39.202 182.984 39.1824C183.166 39.1577 183.346 39.1191 183.522 39.067C183.705 39.0134 183.884 38.9506 184.061 38.8789C184.192 38.8407 184.305 38.7574 184.381 38.6438L184.651 38.5113C185.498 38.0817 186.392 37.7477 187.313 37.5154C188.192 37.273 189.099 37.1423 190.01 37.1265C190.525 37.1328 191.038 37.1785 191.545 37.2632C192.115 37.3516 192.685 37.4584 193.255 37.5838C193.827 37.7078 194.362 37.8403 194.857 37.9856C195.353 38.1309 195.747 38.2634 196.037 38.3746C196.271 38.3566 196.497 38.2817 196.695 38.1566C196.758 38.1034 196.81 38.0382 196.847 37.9648C196.885 37.8914 196.907 37.8113 196.913 37.7291C196.888 37.4253 196.79 37.1321 196.627 36.8743C196.52 36.6698 196.363 36.4961 196.17 36.3699L195.785 36.1177C195.019 35.7275 194.21 35.4277 193.374 35.2244C192.456 34.9725 191.509 34.8417 190.558 34.8354C188.041 34.8354 186.081 35.099 184.676 35.6262C183.271 36.1534 182.344 36.9013 181.894 37.8702C181.863 37.9324 181.851 38.0022 181.859 38.0711C181.867 38.3407 181.95 38.6028 182.099 38.8276C182.144 38.934 182.217 39.0262 182.311 39.0946C182.404 39.1631 182.514 39.2052 182.629 39.2166Z" fill="white"/>
<path d="M209.937 51.1503C209.842 51.0138 209.714 50.9035 209.565 50.8297L209.193 50.6801L207.659 51.7187C207.143 52.0512 206.537 52.2168 205.924 52.1932C205.741 52.1768 205.561 52.1424 205.385 52.0906C205.071 52.0035 204.779 51.8489 204.53 51.6375C204.19 51.3415 203.914 50.9794 203.718 50.5732C203.44 49.9604 203.302 49.2929 203.316 48.6199V48.4318C203.318 48.3357 203.328 48.2398 203.346 48.1455C203.641 48.2352 203.898 48.3036 204.124 48.3506C204.379 48.3955 204.639 48.407 204.898 48.3848C205.518 48.3721 206.131 48.24 206.702 47.9959C207.191 47.7868 207.634 47.4822 208.005 47.0998C208.376 46.7174 208.666 46.265 208.86 45.769C209.051 45.2918 209.148 44.7825 209.146 44.2687C209.147 43.8709 209.073 43.4765 208.928 43.1061C208.781 42.7333 208.556 42.3955 208.27 42.1144C207.957 41.8065 207.585 41.5651 207.176 41.4049C206.687 41.2162 206.166 41.1247 205.641 41.1356C204.874 41.1246 204.121 41.3434 203.479 41.764C202.84 42.1896 202.3 42.7462 201.893 43.3967C201.453 44.0993 201.129 44.8687 200.936 45.6749C200.725 46.4947 200.617 47.3375 200.615 48.1839C200.636 48.7225 200.675 49.2354 200.73 49.7184C200.786 50.1962 200.899 50.6655 201.068 51.1161C201.242 51.5753 201.481 52.0071 201.778 52.3984C202.145 52.8623 202.576 53.2711 203.06 53.6123C203.487 53.8191 203.932 53.9879 204.389 54.1166C204.82 54.2585 205.269 54.3391 205.723 54.356C206.387 54.3741 207.05 54.2993 207.693 54.1337C208.299 53.9303 208.856 53.6044 209.33 53.1763C209.515 53.0108 209.679 52.8227 209.817 52.6163C209.972 52.3807 210.059 52.1072 210.07 51.8256C210.073 51.7064 210.061 51.5872 210.035 51.4708C209.997 51.3659 209.964 51.2589 209.937 51.1503ZM203.731 45.1663C203.805 44.9066 203.901 44.6536 204.017 44.4097C204.1 44.2363 204.208 44.0764 204.338 43.9353C204.445 43.8296 204.546 43.7183 204.641 43.6019C204.694 43.5135 204.765 43.4376 204.85 43.3793C204.935 43.321 205.031 43.2817 205.133 43.2642C205.348 43.2175 205.567 43.1945 205.787 43.1958C205.937 43.1952 206.086 43.2345 206.216 43.3095C206.347 43.3846 206.455 43.4928 206.531 43.6233C206.703 43.8754 206.796 44.1728 206.8 44.4781C206.802 44.7396 206.747 44.9984 206.639 45.2368C206.531 45.4751 206.373 45.6872 206.176 45.8587C205.68 46.2677 205.047 46.4725 204.406 46.4315C204.295 46.4315 204.141 46.4315 203.949 46.4315C203.805 46.4298 203.662 46.4126 203.521 46.3802C203.551 45.9697 203.621 45.5631 203.731 45.1663Z" fill="white"/>
<path d="M216.408 38.896C217.009 38.8325 217.602 38.7093 218.178 38.5284C218.779 38.3298 219.347 38.0416 219.862 37.6735C220.461 37.2481 221.005 36.7499 221.482 36.1903C222.084 35.4764 222.621 34.7097 223.085 33.8993C223.232 33.7378 223.356 33.5565 223.452 33.3608C223.573 33.1673 223.643 32.947 223.658 32.7196C223.644 32.5837 223.598 32.4531 223.524 32.3386C223.449 32.224 223.349 32.129 223.23 32.0614C222.974 31.8997 222.678 31.8124 222.375 31.8092C222.238 31.8349 222.106 31.8856 221.986 31.9588C221.79 32.07 221.622 32.2269 221.499 32.4162C220.921 33.4037 220.201 34.3009 219.362 35.079C218.739 35.6196 217.973 35.9685 217.156 36.0835C216.749 36.1104 216.347 35.9839 216.028 35.7287C215.774 35.4981 215.563 35.2246 215.404 34.9209C215.246 34.6174 215.1 34.3182 214.977 34.0276C214.866 33.762 214.662 33.5461 214.404 33.4206C214.024 33.4456 213.649 33.5188 213.288 33.6386C213.108 33.691 212.95 33.7991 212.835 33.9473C212.721 34.0956 212.656 34.2763 212.651 34.4635C212.747 35.5164 213.139 36.5209 213.78 37.3615C214.438 38.1782 215.374 38.7244 216.408 38.896Z" fill="white"/>
<path d="M223.252 51.5221C222.877 50.9577 222.629 50.3191 222.525 49.65C222.368 48.7325 222.295 47.8025 222.307 46.8717C222.313 46.2232 222.352 45.5755 222.427 44.9312C222.504 44.1789 222.542 43.1403 222.542 41.8153C222.399 41.6015 222.216 41.4172 222.003 41.2724C221.822 41.1194 221.598 41.0254 221.362 41.0031C221.341 41.009 221.319 41.009 221.298 41.0031C221.276 40.9997 221.252 40.9997 221.23 41.0031C220.816 40.9702 220.402 41.053 220.033 41.2425C219.813 41.376 219.65 41.5861 219.576 41.8324C219.508 42.0901 219.48 42.3569 219.494 42.6231C219.501 42.9126 219.46 43.2013 219.375 43.478C219.147 44.1732 218.855 44.9711 218.499 45.8716C218.151 46.7467 217.757 47.6028 217.319 48.4361C216.951 49.162 216.522 49.8555 216.037 50.5091C215.609 51.0862 215.182 51.3939 214.84 51.4367C214.797 50.9665 214.741 50.2741 214.673 49.3636C214.605 48.4532 214.57 47.4616 214.57 46.3716C214.573 46.0337 214.602 45.6965 214.656 45.3629C214.721 44.8598 214.75 44.3527 214.741 43.8455C214.735 43.5109 214.768 43.1766 214.84 42.8496C214.912 42.5342 214.946 42.2114 214.942 41.8879C214.95 41.6918 214.904 41.4974 214.809 41.3257C214.714 41.1539 214.574 41.0114 214.404 40.9134C214.079 40.694 213.71 40.5481 213.322 40.486C213.211 40.486 213.117 40.533 213.036 40.5543L212.818 40.6185C212.696 40.6598 212.577 40.7113 212.463 40.7723C212.39 40.8057 212.327 40.8572 212.279 40.9219C212.1 41.4575 211.987 42.013 211.942 42.5761C211.895 43.136 211.873 43.7216 211.873 44.3285V46.4657C211.874 46.7818 211.851 47.0975 211.805 47.4103C211.805 48.7567 211.843 49.8936 211.925 50.8297C211.966 51.5991 212.11 52.3595 212.352 53.0908C212.504 53.6065 212.823 54.0574 213.258 54.3731C213.733 54.6503 214.278 54.7839 214.827 54.7578C215.457 54.7509 216.063 54.5189 216.537 54.1038C217.072 53.6533 217.542 53.1312 217.934 52.5522C218.332 51.9664 218.686 51.3521 218.994 50.7143C219.298 50.086 219.541 49.5774 219.721 49.1969L219.853 48.9277C219.922 49.4662 220.003 49.9877 220.093 50.4963C220.175 50.973 220.319 51.4371 220.52 51.8769C220.7 52.2737 220.952 52.6333 221.264 52.9369C221.598 53.2475 222.013 53.4578 222.461 53.5439C222.615 53.5005 222.772 53.4676 222.931 53.4456C223.078 53.4234 223.221 53.3832 223.358 53.3259C223.497 53.2664 223.619 53.174 223.713 53.0566C223.825 52.9017 223.899 52.7233 223.931 52.5352C223.851 52.3497 223.749 52.1746 223.628 52.0137C223.508 51.8299 223.388 51.6803 223.252 51.5221Z" fill="white"/>
<path d="M240.977 34.6217L239.336 20.944L236.634 25.4748C231.611 18.6709 224.48 13.7171 216.351 11.3836C208.222 9.04999 199.549 9.46734 191.682 12.5707L192.152 13.7633C199.73 10.7715 208.083 10.3581 215.919 12.5868C223.756 14.8156 230.641 19.5626 235.51 26.0945L230.223 25.992L240.977 34.6217Z" fill="white"/>
<path d="M48.8481 13.7632L49.314 12.5707C41.4484 9.46625 32.7776 9.04708 24.6493 11.3783C16.5209 13.7095 9.39032 18.6606 4.36571 25.4619L1.66009 20.944L0.0230408 34.6217L10.7729 25.9919L5.48984 26.0945C10.359 19.5619 17.2438 14.8145 25.0806 12.5857C32.9174 10.3569 41.27 10.7707 48.8481 13.7632Z" fill="white"/>
</g>
<defs>
<clipPath id="clip0_1_192">
<rect width="240.954" height="64.875" fill="white" transform="translate(0.0230408)"/>
</clipPath>
</defs>
</svg>
