<svg width="33" height="50" viewBox="0 0 33 50" fill="none" xmlns="http://www.w3.org/2000/svg">
<g clip-path="url(#clip0_1_292)">
<path d="M32.0099 19.1931V12.3158H30.4656H29.2091C28.8734 15.2604 26.8111 17.5337 24.3173 17.5337C21.5932 17.5337 19.3775 14.8192 19.3775 11.4813C19.3775 8.14334 21.5932 5.42887 24.3173 5.42887C26.8111 5.42887 28.8734 7.70212 29.2091 10.6468H32.0099V2.28277C30.4848 1.82237 25.5642 0.575439 16.4041 0.575439C7.24395 0.575439 2.32337 1.82237 0.798284 2.28277V10.6468H3.59908C3.93479 7.70212 5.99702 5.42887 8.49088 5.42887C11.2149 5.42887 13.4306 8.14334 13.4306 11.4813C13.4306 14.8192 11.2149 17.5337 8.49088 17.5337C5.99702 17.5337 3.93479 15.2604 3.59908 12.3158H0.798284V19.1931C0.798284 19.2122 0.798284 19.241 0.798284 19.2698C0.788692 19.3369 0.769508 19.6439 0.769508 20.1235C0.769508 22.5118 1.35461 29.1973 7.58925 31.8925L7.78109 31.7966C10.1023 30.684 13.1621 30.0605 16.4041 30.0605C19.6461 30.0605 22.7155 30.6744 25.0271 31.7966L25.2189 31.8925C31.4536 29.2069 32.0387 22.5214 32.0387 20.1235C32.0387 19.6439 32.0195 19.3369 32.0099 19.2698C32.0099 19.241 32.0099 19.2218 32.0099 19.1931Z" fill="white"/>
<path d="M23.8377 36.9378V33.1107C21.7947 32.2283 19.1953 31.7295 16.4041 31.7295C13.6129 31.7295 11.0135 32.2283 8.97046 33.1107V36.9378C11.1094 36.1225 13.6512 35.6525 16.4041 35.6525C19.1569 35.6525 21.6987 36.1129 23.8377 36.9378Z" fill="white"/>
<path d="M16.3465 37.0818C10.6778 37.0818 5.88192 39.7963 5.88192 42.9999C5.88192 46.2131 10.6682 48.918 16.3465 48.918C22.0153 48.918 26.8016 46.2036 26.8016 42.9999C26.8016 39.7963 22.0153 37.0818 16.3465 37.0818Z" fill="white"/>
</g>
<defs>
<clipPath id="clip0_1_292">
<rect width="32.9957" height="49.7812" fill="white" transform="translate(0.00216675)"/>
</clipPath>
</defs>
</svg>
