<svg width="50" height="31" viewBox="0 0 50 31" fill="none" xmlns="http://www.w3.org/2000/svg">
<g clip-path="url(#clip0_1_282)">
<path d="M24.9039 0.942139C14.4339 0.942139 5.32923 6.51841 1.0605 14.7194L0.675928 15.4789L1.0605 16.2192C5.32923 24.4298 14.4339 30.0157 24.9039 30.0157C35.3738 30.0157 44.4785 24.4298 48.7472 16.2192L49.1318 15.4789L48.7472 14.7194C44.4785 6.51841 35.3738 0.942139 24.9039 0.942139ZM20.2794 4.59556C16.0876 6.41265 13.1552 10.6045 13.1552 15.4789C13.1552 20.3533 16.0972 24.5548 20.2794 26.3622C13.3187 25.0835 7.53089 20.959 4.3678 15.4789C7.53089 9.99877 13.3187 5.87425 20.2794 4.59556ZM29.5283 4.59556C36.489 5.87425 42.2768 9.99877 45.4399 15.4789C42.2768 20.959 36.489 25.0835 29.5187 26.3622C33.7105 24.5451 36.6429 20.3533 36.6429 15.4789C36.6525 10.6045 33.7105 6.40304 29.5283 4.59556Z" fill="white"/>
</g>
<defs>
<clipPath id="clip0_1_282">
<rect width="49.9941" height="30.7656" fill="white" transform="translate(0.00292969)"/>
</clipPath>
</defs>
</svg>
