<svg width="35" height="46" viewBox="0 0 35 46" fill="none" xmlns="http://www.w3.org/2000/svg">
<g clip-path="url(#clip0_1_300)">
<path d="M34.0586 4.86614C33.724 4.67493 33.2651 4.82789 33.0356 5.21987L25.722 17.8969C25.5021 18.2794 25.0145 18.4228 24.6416 18.2029C24.2688 17.983 24.1445 17.4954 24.3644 17.113L31.6781 4.44548C31.8884 4.08219 31.8024 3.64241 31.4964 3.46076C31.1809 3.27911 30.7603 3.43208 30.5499 3.79537L23.2363 16.4629C23.0164 16.8453 22.5288 16.9887 22.1559 16.7688C21.7831 16.5489 21.6588 16.0613 21.8787 15.6789L29.1924 3.01142C29.4027 2.64813 29.3167 2.20835 29.0107 2.0267C28.6952 1.84506 28.2746 1.99802 28.2172 2.09363L20.7506 15.0288C20.3777 15.6789 20.0431 15.5546 19.6702 15.3348C19.2974 15.1149 19.1731 14.6273 19.393 14.2449L26.7067 1.57737C26.9361 1.18539 26.8405 0.707371 26.5059 0.516163C26.1713 0.324955 25.7124 0.477921 25.4829 0.869897L16.9455 15.6789C16.1138 17.1225 16.4388 18.8817 17.6912 19.5987L18.1788 19.8759L5.60691 41.664C5.08109 42.5723 5.39658 43.7291 6.29526 44.2453C7.2035 44.7712 8.3603 44.4557 8.87656 43.557L21.4485 21.7785L21.936 22.0557C23.1789 22.7727 24.8711 22.1895 25.7028 20.7364L34.2594 5.92734C34.4888 5.53536 34.3932 5.05734 34.0586 4.86614Z" fill="white"/>
<path d="M12.4904 23.7097L13.9818 26.2432L16.2476 22.3139L4.3736 1.74951C1.15175 3.61379 0.042745 7.74387 1.90702 10.9657L9.92818 25.1916L12.4904 23.7097Z" fill="white"/>
<path d="M18.9628 27.0081L16.7161 30.8991L24.154 43.5571C24.6799 44.4653 25.8367 44.7712 26.7353 44.2454C27.6436 43.7196 27.9495 42.5628 27.4237 41.6641L18.9628 27.0081Z" fill="white"/>
</g>
<defs>
<clipPath id="clip0_1_300">
<rect width="34.991" height="45.125" fill="white" transform="translate(0.0045166)"/>
</clipPath>
</defs>
</svg>
