<svg width="48" height="49" viewBox="0 0 48 49" fill="none" xmlns="http://www.w3.org/2000/svg">
<g clip-path="url(#clip0_1_308)">
<path d="M24 37.5001C22.2136 37.5001 20.414 37.1268 18.7742 36.4602C17.2012 35.7937 15.7081 34.8205 14.5216 33.5541C13.2552 32.2876 12.362 30.8612 11.6155 29.3015C10.9489 27.6618 10.5757 25.8621 10.5757 24.0757C10.5757 22.2894 10.9489 20.4897 11.6155 18.8499C12.282 17.2769 13.2552 15.7838 14.5216 14.5974C15.7881 13.3976 17.2145 12.4377 18.7742 11.6912C20.414 11.0246 22.2136 10.6514 24 10.6514C25.7864 10.6514 27.586 11.0246 29.2258 11.6912C30.7988 12.3577 32.2919 13.3309 33.4784 14.5974C34.6782 15.8638 35.638 17.2902 36.3845 18.8499C37.0511 20.4897 37.4243 22.2894 37.4243 24.0757C37.4243 25.8621 37.0511 27.6618 36.3845 29.3015C35.718 30.8745 34.7448 32.3676 33.4784 33.5541C32.2119 34.8205 30.7855 35.7137 29.2258 36.4602C27.586 37.1268 25.7864 37.5001 24 37.5001Z" fill="white"/>
<path d="M24 0.999756C23.1068 0.999756 22.3603 1.82628 22.3603 2.94609C22.3603 3.98591 22.6536 7.71859 24 7.71859C25.3464 7.71859 25.6397 4.06589 25.6397 2.94609C25.6397 1.81295 24.8932 0.999756 24 0.999756Z" fill="white"/>
<path d="M24 47.1251C23.1068 47.1251 22.3603 46.2986 22.3603 45.1788C22.3603 44.1389 22.6536 40.4062 24 40.4062C25.3464 40.4062 25.6397 44.0589 25.6397 45.1788C25.6397 46.3119 24.8932 47.1251 24 47.1251Z" fill="white"/>
<path d="M12.4287 4.05251C11.6021 4.50577 11.3889 5.62557 11.9754 6.51875C12.4953 7.41193 14.5883 10.4781 15.7881 9.79818C16.9879 9.13163 15.4148 5.77221 14.8949 4.8657C14.375 3.98586 13.2552 3.61259 12.4287 4.05251Z" fill="white"/>
<path d="M35.5713 44.0723C34.7448 44.5256 33.705 44.1523 33.1851 43.2458C32.6652 42.3393 31.0921 38.9932 32.2919 38.3133C33.4917 37.6468 35.5713 40.6996 36.1046 41.5928C36.5445 42.4993 36.3179 43.6191 35.5713 44.0723Z" fill="white"/>
<path d="M3.99013 12.4911C3.53688 13.3176 3.91014 14.3574 4.81665 14.8773C5.70983 15.3973 9.06925 17.037 9.74913 15.8505C10.4157 14.6507 7.36288 12.5711 6.4697 12.0378C5.56319 11.5179 4.44339 11.7446 3.99013 12.4911Z" fill="white"/>
<path d="M44.0099 35.6338C43.5566 36.4603 42.4368 36.6736 41.5436 36.087C40.6504 35.5671 37.5843 33.4742 38.2642 32.2744C38.9307 31.0746 42.2902 32.6476 43.1967 33.1675C44.0765 33.7674 44.4498 34.8073 44.0099 35.6338Z" fill="white"/>
<path d="M0.937326 24.0623C0.937326 24.9555 1.76385 25.702 2.88366 25.702C4.00346 25.702 7.58951 25.4088 7.58951 24.0623C7.58951 22.7159 3.92348 22.4226 2.80367 22.4226C1.68386 22.4226 0.937326 23.1691 0.937326 24.0623Z" fill="white"/>
<path d="M47.0627 24.0623C47.0627 24.9555 46.2361 25.702 45.1163 25.702C43.9965 25.702 40.4105 25.4088 40.4105 24.0623C40.4105 22.7159 44.0632 22.4226 45.183 22.4226C46.3161 22.4226 47.0627 23.1691 47.0627 24.0623Z" fill="white"/>
<path d="M3.99013 35.6338C4.44339 36.4603 5.56319 36.6736 6.45637 36.087C7.34955 35.5671 10.4157 33.4742 9.7358 32.2744C9.06925 31.0746 5.70983 32.6476 4.80332 33.1675C3.92348 33.7674 3.55021 34.8073 3.99013 35.6338Z" fill="white"/>
<path d="M44.0099 12.4911C44.4631 13.3176 44.0899 14.3574 43.1833 14.8773C42.2902 15.3973 38.9307 17.037 38.2509 15.8505C37.5843 14.6507 40.6371 12.5711 41.5303 12.0378C42.4368 11.5179 43.5566 11.7446 44.0099 12.4911Z" fill="white"/>
<path d="M12.4287 44.0723C13.2552 44.5256 14.295 44.1523 14.8149 43.2458C15.3348 42.3393 16.9079 38.9932 15.7081 38.3133C14.5083 37.6468 12.4287 40.6996 11.8954 41.5928C11.4555 42.4993 11.6821 43.6191 12.4287 44.0723Z" fill="white"/>
<path d="M35.5713 4.05251C36.3979 4.50577 36.6111 5.62557 36.0246 6.51875C35.5047 7.41193 33.4117 10.4781 32.2119 9.79818C31.0121 9.13163 32.5852 5.77221 33.1051 4.8657C33.625 3.98586 34.7448 3.61259 35.5713 4.05251Z" fill="white"/>
</g>
<defs>
<clipPath id="clip0_1_308">
<rect width="47.9917" height="48.125" fill="white" transform="translate(0.00415516)"/>
</clipPath>
</defs>
</svg>
