<svg width="94" height="106" viewBox="0 0 94 106" fill="none" xmlns="http://www.w3.org/2000/svg">
<path d="M67.5952 8.82444C67.5952 8.82444 71.7202 4.77244 84.6927 1.28689C80.7117 -5.69707 56.0617 5.57304 53.1022 5.25734C50.1272 4.94794 5.53156 -0.618078 -0.457467 13.3008C-6.46179 27.2261 39.2817 34.7883 42.6067 35.5975C45.9316 36.4067 43.08 53.7552 60.6872 53.5092C55.9192 44.6664 55.2552 43.0609 56.2122 40.7851C56.2122 40.7851 85.8627 55.6302 74.4877 64.8832C64.5357 72.2942 45.781 77.6882 45.781 77.6882C45.781 77.6882 36.7117 81.1727 30.2726 87.5962C37.8233 93.7302 32.1348 85.3022 32.1348 85.3022C32.1348 85.3022 26.1226 91.9787 19.6038 105.007C28.8935 106.643 42.3835 86.1837 53.0577 85.0637C85.7637 83.4432 98.0202 54.7202 91.8537 32.9725C85.6662 11.2159 67.5952 8.82444 67.5952 8.82444Z" fill="#FFF222"/>
</svg>
